<svg width="254" height="92" viewBox="0 0 254 92" fill="none" xmlns="http://www.w3.org/2000/svg">
<path opacity="0.502" fill-rule="evenodd" clip-rule="evenodd" d="M21.7999 34.6955L25.7199 34.5358L22.7999 37.1314L26.5599 36.0133L24.3599 39.2479L27.7199 37.2113L26.3999 40.9251L29.1599 38.0898L28.7999 42.0033L30.7599 38.609L31.3999 42.4825L32.4399 38.6889L34.0399 42.2829L34.0799 38.3694L36.5199 41.4443L35.5999 37.6506L38.7199 40.0067L36.8799 36.5324L40.5199 38.0898L37.8799 35.1747L41.7599 35.7737L38.4799 33.6173L42.3999 33.218L38.6799 31.9401L42.3599 30.5824L38.4399 30.2629L41.6799 28.0666L37.7999 28.7055L40.3999 25.7504L36.7999 27.3877L38.5599 23.8735L35.4799 26.3095L36.3199 22.4759L33.9599 25.5907L33.8399 21.6772L32.3199 25.3111L31.1999 21.5574L30.6399 25.4309L28.5999 22.0765L29.0399 25.9501L26.2399 23.1947L27.6399 26.8686L24.2399 24.9118L26.4799 28.1065L22.7199 27.0283L25.6799 29.584L21.7599 29.5042L25.2799 31.2213L21.4399 32.0998L25.3199 32.8985L21.7999 34.6955Z" fill="#FFBF00"/>
<g filter="url(#filter0_d_25:370)">
<path fill-rule="evenodd" clip-rule="evenodd" d="M20.8 36.5724L25.24 35.7737L22.28 39.1681L26.4 37.3311L24.4 41.3644L27.92 38.5291L26.96 42.9617L29.68 39.3677L29.84 43.8403L31.56 39.6872L32.84 44L33.48 39.5674L35.8 43.401L35.32 38.9285L38.52 42.0832L36.96 37.8902L40.84 40.1664L38.24 36.4526L42.6 37.6905L39.16 34.7754L43.68 34.8952L39.64 32.8985L44 31.9002L39.6 30.9817L43.6 28.9052L39.12 29.1048L42.48 26.1098L38.16 27.4276L40.68 23.6739L36.8 26.03L38.32 21.797L35.16 25.0316L35.56 20.5191L33.32 24.4326L32.6 20L31.4 24.3527L29.6 20.1997L29.52 24.7121L26.72 21.198L27.76 25.5507L24.2 22.8353L26.28 26.7887L22.16 25.0316L25.16 28.386L20.72 27.7072L24.48 30.183L20 30.6223L24.28 32.0998L20.04 33.6572L24.52 34.0166L20.8 36.5724Z" fill="url(#paint0_linear_25:370)"/>
</g>
<path fill-rule="evenodd" clip-rule="evenodd" d="M23.8799 32.4592C23.4799 28.0266 26.7599 24.1131 31.1999 23.7138C35.6399 23.3145 39.5599 26.589 39.9599 31.0216C40.3599 35.4542 37.0799 39.3677 32.6399 39.767C28.1599 40.1664 24.2799 36.8918 23.8799 32.4592Z" fill="url(#paint1_linear_25:370)"/>
<path opacity="0.1176" fill-rule="evenodd" clip-rule="evenodd" d="M23.8799 32.4592C23.4799 28.0266 26.7599 24.1132 31.1999 23.7537C35.6399 23.3544 39.5599 26.629 39.9599 31.0616C40.6399 36.173 24.6799 37.8103 23.8799 32.4592Z" fill="#FFFF00"/>
<path opacity="0.2549" fill-rule="evenodd" clip-rule="evenodd" d="M25.2 30.6223C24.12 28.9052 25.12 26.3894 27.52 25.0715C29.88 23.7537 32.68 24.0732 33.76 25.8303C34.84 27.5474 33.84 30.0632 31.44 31.381C29.08 32.6988 26.28 32.3794 25.2 30.6223Z" fill="#FFFF00"/>
<path fill-rule="evenodd" clip-rule="evenodd" d="M31.8 39.6073C32.08 39.6073 32.32 39.6073 32.6 39.5674C36.92 39.208 40.16 35.3744 39.76 31.0216C39.36 26.6689 35.56 23.4742 31.2 23.8735C26.88 24.2729 23.68 28.1065 24.04 32.4193C24.4 36.4925 27.8 39.5674 31.8 39.6073ZM31.8 39.9667C27.6 39.9268 24.08 36.6922 23.68 32.4592C23.32 27.9467 26.64 23.9534 31.2 23.5541C35.72 23.1547 39.72 26.5091 40.12 31.0216C40.52 35.5341 37.16 39.5274 32.64 39.9268C32.36 39.9667 32.08 39.9667 31.8 39.9667Z" fill="url(#paint2_linear_25:370)"/>
<defs>
<filter id="filter0_d_25:370" x="-70" y="-120" width="324" height="324" filterUnits="userSpaceOnUse" color-interpolation-filters="sRGB">
<feFlood flood-opacity="0" result="BackgroundImageFix"/>
<feColorMatrix in="SourceAlpha" type="matrix" values="0 0 0 0 0 0 0 0 0 0 0 0 0 0 0 0 0 0 127 0" result="hardAlpha"/>
<feOffset dx="60" dy="10"/>
<feGaussianBlur stdDeviation="75"/>
<feComposite in2="hardAlpha" operator="out"/>
<feColorMatrix type="matrix" values="0 0 0 0 1 0 0 0 0 0.74902 0 0 0 0 0 0 0 0 0.3 0"/>
<feBlend mode="normal" in2="BackgroundImageFix" result="effect1_dropShadow_25:370"/>
<feBlend mode="normal" in="SourceGraphic" in2="effect1_dropShadow_25:370" result="shape"/>
</filter>
<linearGradient id="paint0_linear_25:370" x1="30.8763" y1="26.0492" x2="34.132" y2="44.0811" gradientUnits="userSpaceOnUse">
<stop stop-color="#FFBF00"/>
<stop offset="1" stop-color="#FF8000"/>
</linearGradient>
<linearGradient id="paint1_linear_25:370" x1="31.1886" y1="27.7512" x2="33.3701" y2="39.8499" gradientUnits="userSpaceOnUse">
<stop stop-color="#FFBF00"/>
<stop offset="1" stop-color="#FF8000"/>
</linearGradient>
<linearGradient id="paint2_linear_25:370" x1="24.0737" y1="37.028" x2="43.4486" y2="23.9269" gradientUnits="userSpaceOnUse">
<stop stop-color="#FFFF00"/>
<stop offset="1" stop-color="#FF8000"/>
</linearGradient>
</defs>
</svg>
