<svg width="19" height="22" viewBox="0 0 19 22" fill="none" xmlns="http://www.w3.org/2000/svg">
<path fill-rule="evenodd" clip-rule="evenodd" d="M10.734 21.8044C5.28815 21.7067 0.620294 17.5022 0.13406 11.9289C-0.352174 5.96443 4.02394 0.68443 9.95599 0.195541H10.0532L9.7615 0.488874C8.01106 2.63999 7.03858 5.37777 7.23308 8.40888C7.71931 13.9822 12.3872 18.2844 17.833 18.2844H18.9027L18.5137 18.7733C16.7633 20.4355 14.5266 21.6089 11.9009 21.8044C11.4147 21.8044 11.0257 21.8044 10.734 21.8044Z" fill="url(#paint0_linear_50_3914)"/>
<path opacity="0.1725" fill-rule="evenodd" clip-rule="evenodd" d="M15.6935 19.0667C10.2477 18.9689 5.57988 14.7644 5.09364 9.19111C4.8019 5.86667 6.06611 2.73778 8.30279 0.488889L8.59453 0.195556H8.69177C9.08076 0.0977785 9.37251 0.0977778 9.76149 0H9.85873L9.567 0.293336C7.81656 2.44445 6.84409 5.18222 7.03858 8.21334C7.52481 13.7867 12.1927 18.0889 17.6385 18.0889H18.7082L18.3192 18.5778L18.0275 18.8711L17.7357 18.9689C17.444 19.0667 17.055 19.0667 16.7633 19.0667C16.4715 19.0667 16.0825 19.0667 15.6935 19.0667Z" fill="#FFFF00"/>
<path fill-rule="evenodd" clip-rule="evenodd" d="M10.734 21.6089C11.123 21.6089 11.4147 21.6089 11.8037 21.6089C14.0404 21.4133 16.0826 20.5333 17.6385 19.1644L18.3193 18.5778L18.5138 18.3822H17.833C12.29 18.2844 7.62213 13.9822 7.1359 8.31111C6.84416 5.28 7.81661 2.44445 9.6643 0.293336L8.88633 0.391113C3.635 1.36889 -0.157612 6.35556 0.328622 11.8311C0.717609 17.4044 5.2882 21.6089 10.734 21.6089ZM10.734 22C5.19096 21.9022 0.523113 17.6 0.036879 11.9289C-0.449355 5.86667 3.92675 0.488889 9.95605 0H10.0533L10.1505 0.293336L9.85879 0.586669L9.27532 1.36889C7.91387 3.32445 7.23313 5.76889 7.42762 8.31111C7.91386 13.4933 11.901 17.5022 16.8606 17.9911L17.833 18.0889H18.9027L19 18.3822L18.611 18.8711C16.8606 20.6311 14.5266 21.8044 11.901 22C11.4147 22 11.0258 22 10.734 22Z" fill="url(#paint1_linear_50_3914)"/>
<path opacity="0.2078" fill-rule="evenodd" clip-rule="evenodd" d="M0.13406 11.9289C-0.352174 5.96443 4.02394 0.68443 9.95599 0.195541H10.0532L9.7615 0.488874C8.01106 2.63999 7.03858 5.37777 7.23308 8.40888C4.89915 11.2444 2.46798 11.5378 0.13406 11.9289Z" fill="white"/>
<path opacity="0.4" fill-rule="evenodd" clip-rule="evenodd" d="M1.98185 7.03997C2.27359 7.13775 2.27358 7.62664 2.07908 8.11553C1.88459 8.60442 1.49561 8.89775 1.20387 8.79997C0.912129 8.7022 0.912123 8.21331 1.10662 7.72442C1.39836 7.23553 1.78735 6.9422 1.98185 7.03997Z" fill="white"/>
<path opacity="0.4" fill-rule="evenodd" clip-rule="evenodd" d="M4.12125 3.51999C4.31575 3.81333 4.024 4.79111 3.53777 5.67111C3.05153 6.55111 2.46806 6.94222 2.27357 6.64888C2.07908 6.35555 2.37081 5.37777 2.85704 4.49777C3.34327 3.61777 3.92676 3.22666 4.12125 3.51999Z" fill="white"/>
<defs>
<linearGradient id="paint0_linear_50_3914" x1="4.42151" y1="-1.79332" x2="16.2247" y2="38.0327" gradientUnits="userSpaceOnUse">
<stop stop-color="#FFF2B0"/>
<stop offset="1" stop-color="#FF8000"/>
</linearGradient>
<linearGradient id="paint1_linear_50_3914" x1="0.813006" y1="18.7863" x2="25.1134" y2="4.57257" gradientUnits="userSpaceOnUse">
<stop stop-color="#FFFF00"/>
<stop offset="1" stop-color="#FF8000"/>
</linearGradient>
</defs>
</svg>
