<svg width="25" height="24" viewBox="0 0 25 24" fill="none" xmlns="http://www.w3.org/2000/svg">
<path fill-rule="evenodd" clip-rule="evenodd" d="M16.7085 19.9724C11.7738 19.893 7.5793 16.2416 7.08583 11.3201C6.59236 6.16039 10.6224 1.55639 15.9683 1.08011H16.0505L15.8038 1.39763C14.1589 3.22335 13.3364 5.68411 13.5832 8.30364C13.9944 13.1458 18.1889 16.8766 23.2058 16.956H24.1105L23.6993 17.3529C22.1366 18.8611 20.0805 19.8137 17.6954 20.0518C17.3664 19.9724 17.0375 19.9724 16.7085 19.9724Z" fill="url(#paint0_linear_50:3941)"/>
<path opacity="0.1725" fill-rule="evenodd" clip-rule="evenodd" d="M21.2312 17.5903C16.2965 17.5109 12.102 13.8595 11.6085 8.93794C11.3618 6.0009 12.5132 3.302 14.4871 1.3969L14.8161 1.15876H14.8983C15.2273 1.07938 15.5563 1.07938 15.8852 1H15.9675L15.7207 1.23814C14.0758 3.06386 13.2534 5.52463 13.5001 8.14415C13.9114 12.9863 18.1058 16.7171 23.1228 16.7965H24.0275L23.6162 17.1934L23.3695 17.4315L23.1228 17.5109C22.876 17.5903 22.5471 17.5903 22.2181 17.5903C21.8891 17.5109 21.5601 17.5903 21.2312 17.5903Z" fill="#FFFF00"/>
<path fill-rule="evenodd" clip-rule="evenodd" d="M16.7077 19.8129C17.0367 19.8129 17.3656 19.8129 17.6946 19.8129C19.7507 19.6542 21.5601 18.8604 23.0405 17.6697L23.6162 17.114L23.7807 16.9553H23.205C18.1881 16.8759 13.9114 13.1451 13.5001 8.22353C13.2534 5.60401 14.1581 3.14324 15.803 1.23814L14.9805 1.3969C10.2103 2.27007 6.75606 6.55656 7.16728 11.3193C7.66075 16.1615 11.773 19.7335 16.7077 19.8129ZM16.7077 20.1304C11.6908 20.0511 7.41402 16.3202 7.0028 11.3987C6.50933 6.15966 10.5393 1.47628 16.0497 1H16.132L16.2142 1.23814L15.9675 1.47628L15.3095 2.19069C14.0758 3.93704 13.4179 6.0009 13.6646 8.30291C14.0758 12.8275 17.7769 16.2408 22.2181 16.7171L23.1228 16.7965H24.0275L24.1097 17.0346L23.6985 17.4315C22.1358 18.9397 19.9975 19.9717 17.6124 20.1304C17.3656 20.1304 17.0367 20.1304 16.7077 20.1304Z" fill="url(#paint1_linear_50:3941)"/>
<path opacity="0.2078" fill-rule="evenodd" clip-rule="evenodd" d="M7.08583 11.3201C6.59236 6.16039 10.6224 1.55639 15.9683 1.08011H16.0505L15.8038 1.39763C14.1589 3.22335 13.3364 5.68411 13.5832 8.30364C11.3626 10.7644 9.2242 11.0025 7.08583 11.3201Z" fill="white"/>
<path opacity="0.4" fill-rule="evenodd" clip-rule="evenodd" d="M8.81212 7.11222C9.05885 7.1916 9.05886 7.66788 8.89437 8.06477C8.72988 8.46167 8.40089 8.77919 8.15416 8.69981C7.90742 8.62043 7.90743 8.14415 8.07192 7.74726C8.23641 7.27098 8.56538 6.95346 8.81212 7.11222Z" fill="white"/>
<path opacity="0.4" fill-rule="evenodd" clip-rule="evenodd" d="M10.7039 4.01641C10.8684 4.25454 10.6216 5.12772 10.2104 5.92151C9.71692 6.71531 9.22346 7.03282 9.05897 6.79469C8.89448 6.55655 9.14121 5.68337 9.55243 4.88958C9.96366 4.17516 10.5394 3.77827 10.7039 4.01641Z" fill="white"/>
<path opacity="0.4627" fill-rule="evenodd" clip-rule="evenodd" d="M13.8502 20.0682C15.3515 20.1785 16.6722 19.5866 17.4992 18.6746L17.7624 18.3291L18.0844 18.4339C18.222 18.4845 18.3627 18.4949 18.5504 18.5087C19.864 18.6052 21.0129 17.798 21.102 16.6696C21.1847 15.6218 20.3132 14.7065 19.103 14.4959L18.9153 14.4821L18.8684 14.4787L18.4899 14.4914L18.4963 14.4108C18.3754 13.5507 17.5318 12.8807 16.4997 12.8048C16.2182 12.7841 15.9335 12.8037 15.6425 12.9039L15.5987 12.8602C15.0493 12.0496 14.0116 11.4464 12.8388 11.3602C11.5252 11.2636 10.3046 11.7819 9.66849 12.6674L9.61204 12.7848L9.56512 12.7814C9.47129 12.7745 9.37747 12.7676 9.28364 12.7607L7.75377 17.796L7.87543 18.0481C8.33741 18.7711 9.19379 19.28 10.179 19.3524C10.5543 19.38 10.8859 19.3638 11.2238 19.2671L11.5148 19.1669L12.0524 19.5307C12.4086 19.8001 13.0996 20.013 13.8502 20.0682Z" fill="#A75001" fill-opacity="0.3"/>
<path fill-rule="evenodd" clip-rule="evenodd" d="M14.0867 23C16.1382 23 17.882 21.8792 18.6513 20.2914L19.1642 20.4315C19.3181 20.4782 19.5232 20.4782 19.6771 20.4782C21.2157 20.4782 22.4979 19.3574 22.4979 17.9564C22.4979 16.5554 21.2157 15.4346 19.6771 15.4346C19.4719 15.4346 19.2668 15.4346 19.1129 15.4813H19.0616L18.0256 16.3592C17.7692 15.3318 17.7281 13.4731 16.4972 13.4731C16.1382 13.4731 15.8305 13.5198 15.5227 13.6599L15.3689 13.7066L15.2663 13.5665C14.497 12.5858 13.2661 11.932 11.83 11.932C10.2401 11.932 8.8553 12.7259 8.18855 13.8934L8.08598 14.1269L7.93211 14.0802C7.82954 14.0802 7.72696 14.0802 7.62438 14.0802C6.54734 14.0802 5.57286 14.594 5.0087 15.3412V15.3879L4.85483 15.3412C4.59839 15.2945 4.34195 15.2478 4.08551 15.2478C3.21361 15.2478 3.41877 16.0417 2.95717 16.6021H1.77754L1.67497 16.5554C1.5724 16.5554 1.52111 16.5554 1.41853 16.5554C0.700499 16.5554 0.13633 17.0691 0.13633 17.6762C0.13633 18.2833 0.700499 18.797 1.41853 18.797C1.5724 18.797 1.77755 18.7503 1.93141 18.7036L1.9827 18.6569L1.88012 18.7503C2.08528 18.9838 2.29043 19.2173 2.54687 19.3574L2.95717 19.5442L3.05975 19.6843C3.52134 20.2914 4.29066 20.665 5.16256 20.665C5.52157 20.665 5.8293 20.6183 6.13703 20.4782L6.18832 20.4315V20.4782C6.7012 21.5523 7.88083 22.2995 9.2656 22.2995C9.82977 22.2995 10.3939 22.1594 10.8555 21.9259L10.9068 21.9726C11.83 22.6264 12.9071 23 14.0867 23Z" fill="white"/>
<path fill-rule="evenodd" clip-rule="evenodd" d="M13.896 22.727C15.9234 22.727 17.6467 21.6065 18.407 20.019L18.9138 20.1591C19.0659 20.2058 19.2686 20.2058 19.4207 20.2058C20.9412 20.2058 22.2084 19.0853 22.2084 17.6846C22.2084 16.2839 20.9412 15.1634 19.4207 15.1634C19.218 15.1634 19.0152 15.1634 18.8632 15.2101H18.8125L18.7618 15.0234C18.5084 13.9962 17.4947 13.2025 16.2782 13.2025C15.9234 13.2025 15.6193 13.2492 15.3152 13.3893L15.1632 13.4359L15.0618 13.2959C14.3015 12.3154 13.0851 11.6618 11.6659 11.6618C10.0947 11.6618 8.72616 12.4555 8.06726 13.6227L7.96589 13.8561L7.81383 13.8095C7.71246 13.8095 7.61109 13.8095 7.50972 13.8095C6.44534 13.8095 5.48232 14.323 4.92479 15.07V15.1167L4.77273 15.07C4.51931 15.0234 4.26588 14.9767 4.01246 14.9767C3.15081 14.9767 2.39054 15.3969 1.93437 15.9571L1.73163 16.3306L1.63026 16.2839C1.52889 16.2839 1.47821 16.2839 1.37684 16.2839C0.667248 16.2839 0.109713 16.7975 0.109713 17.4045C0.109713 18.0114 0.667248 18.525 1.37684 18.525C1.52889 18.525 1.73163 18.4783 1.88369 18.4316L1.93437 18.3849L1.833 18.4783C2.03574 18.7118 2.23848 18.9452 2.49191 19.0853L2.89739 19.272L2.99876 19.4121C3.45492 20.019 4.21519 20.3926 5.07684 20.3926C5.43163 20.3926 5.73575 20.3459 6.03986 20.2058L6.09054 20.1591V20.2058C6.59739 21.2796 7.76315 22.0267 9.13164 22.0267C9.68918 22.0267 10.2467 21.8866 10.7029 21.6531L10.7536 21.6998C11.6659 22.3535 12.7303 22.727 13.896 22.727Z" fill="url(#paint2_linear_50:3941)"/>
<path opacity="0.1176" fill-rule="evenodd" clip-rule="evenodd" d="M19.4714 15.0234L18.9646 15.0701V14.9767C18.7111 13.9029 17.6468 13.0625 16.3796 13.0625C16.0248 13.0625 15.67 13.1092 15.3659 13.2492H15.3152L15.2646 13.2025C14.5043 12.1754 13.2372 11.5217 11.7673 11.5217C10.1454 11.5217 8.77688 12.3155 8.0166 13.5294L7.96592 13.6694H7.86455C7.76318 13.6694 7.66181 13.6694 7.50975 13.6694C6.54674 13.6694 5.63441 14.0429 5.02619 14.6966L4.82345 14.93H4.77276C4.51934 14.8366 4.26591 14.8366 3.9618 14.8366C3.04947 14.8366 2.23851 15.2568 1.78234 15.9105L1.63029 16.1439H1.57961C1.47824 16.1439 1.37686 16.0972 1.27549 16.0972C0.565903 18.6651 21.0933 18.525 19.4714 15.0234Z" fill="white"/>
<defs>
<linearGradient id="paint0_linear_50:3941" x1="10.9767" y1="-0.578818" x2="20.8995" y2="34.3052" gradientUnits="userSpaceOnUse">
<stop stop-color="#FFF2B0"/>
<stop offset="1" stop-color="#FF8000"/>
</linearGradient>
<linearGradient id="paint1_linear_50:3941" x1="7.70424" y1="17.3347" x2="29.2706" y2="4.19231" gradientUnits="userSpaceOnUse">
<stop stop-color="#FFFF00"/>
<stop offset="1" stop-color="#FF8000"/>
</linearGradient>
<linearGradient id="paint2_linear_50:3941" x1="11.4645" y1="22.8901" x2="11.0684" y2="15.3416" gradientUnits="userSpaceOnUse">
<stop stop-color="#758A8F"/>
<stop offset="1" stop-color="#93B6BD"/>
</linearGradient>
</defs>
</svg>
