<svg width="24" height="24" viewBox="0 0 24 24" fill="none" xmlns="http://www.w3.org/2000/svg">
<path fill-rule="evenodd" clip-rule="evenodd" d="M14.7892 17.6618C16.9625 17.6618 18.8099 16.4606 19.6249 14.7589L20.1682 14.9091C20.3312 14.9591 20.5486 14.9591 20.7116 14.9591C22.3416 14.9591 23.7 13.7579 23.7 12.2564C23.7 10.7549 22.3416 9.55375 20.7116 9.55375C20.4942 9.55375 20.2769 9.55375 20.1139 9.6038H20.0596L20.0052 9.4036C19.7336 8.3025 18.6469 7.45165 17.3429 7.45165C16.9625 7.45165 16.6365 7.5017 16.3105 7.65185L16.1475 7.7019L16.0389 7.55175C15.2239 6.5007 13.9198 5.8 12.3985 5.8C10.7141 5.8 9.24712 6.65085 8.54078 7.9021L8.43211 8.15235L8.26911 8.1023C8.16044 8.1023 8.05177 8.1023 7.9431 8.1023C6.80209 8.1023 5.76975 8.65285 5.17207 9.45365V9.5037L5.00907 9.45365C4.7374 9.4036 4.46573 9.35355 4.19406 9.35355C3.27038 9.35355 2.45538 9.804 1.96637 10.4046L1.74903 10.805L1.64037 10.7549C1.5317 10.7549 1.47736 10.7549 1.3687 10.7549C0.608021 10.7549 0.0103474 11.3055 0.0103474 11.9561C0.0103474 12.6068 0.608021 13.1573 1.3687 13.1573C1.5317 13.1573 1.74903 13.1073 1.91204 13.0572L1.96637 13.0072L1.8577 13.1073C2.07504 13.3575 2.29237 13.6078 2.56404 13.7579L2.99871 13.9581L3.10738 14.1083C3.59639 14.7589 4.4114 15.1593 5.33507 15.1593C5.71541 15.1593 6.04142 15.1093 6.36742 14.9591L6.42175 14.9091V14.9591C6.96509 16.1103 8.21477 16.9111 9.68179 16.9111C10.2795 16.9111 10.8771 16.7609 11.3661 16.5107L11.4205 16.5607C12.3985 17.2614 13.5395 17.6618 14.7892 17.6618Z" fill="#5B5B5B" fill-opacity="0.1"/>
<path fill-rule="evenodd" clip-rule="evenodd" d="M14.9832 18.3046C17.1824 18.3046 19.0518 17.1031 19.8765 15.401L20.4263 15.5512C20.5912 15.6012 20.8111 15.6012 20.9761 15.6012C22.6255 15.6012 24 14.3997 24 12.8979C24 11.396 22.6255 10.1945 20.9761 10.1945C20.7562 10.1945 20.5362 10.1945 20.3713 10.2446H20.3163L19.2057 11.1857C18.9308 10.0844 18.8868 8.09189 17.5673 8.09189C17.1824 8.09189 16.8525 8.14195 16.5227 8.29214L16.3577 8.3422L16.2478 8.19202C15.4231 7.14071 14.1035 6.43983 12.5641 6.43983C10.8597 6.43983 9.37521 7.29089 8.66046 8.54245L8.5505 8.79277L8.38556 8.7427C8.2756 8.7427 8.16564 8.7427 8.05567 8.7427C6.90108 8.7427 5.85646 9.29339 5.25167 10.0944V10.1444L5.08673 10.0944C4.81183 10.0443 4.53693 9.99426 4.26202 9.99426C3.32736 9.99426 3.54728 10.8453 3.05246 11.4461H1.7879L1.67795 11.396C1.56798 11.396 1.513 11.396 1.40304 11.396C0.633318 11.396 0.0285339 11.9467 0.0285339 12.5975C0.0285339 13.2483 0.633318 13.799 1.40304 13.799C1.56799 13.799 1.78791 13.7489 1.95285 13.6989L2.00783 13.6488L1.89787 13.7489C2.11779 13.9992 2.33771 14.2496 2.61261 14.3997L3.05246 14.6L3.16242 14.7502C3.65724 15.401 4.48195 15.8015 5.41661 15.8015C5.80148 15.8015 6.13136 15.7514 6.46124 15.6012L6.51622 15.5512V15.6012C7.06603 16.7527 8.33058 17.5537 9.81505 17.5537C10.4198 17.5537 11.0246 17.4035 11.5194 17.1532L11.5744 17.2032C12.5641 17.9041 13.7187 18.3046 14.9832 18.3046Z" fill="white"/>
<path fill-rule="evenodd" clip-rule="evenodd" d="M14.7788 18.0119C16.9522 18.0119 18.7995 16.8107 19.6145 15.109L20.1579 15.2592C20.3209 15.3092 20.5382 15.3092 20.7012 15.3092C22.3312 15.3092 23.6896 14.108 23.6896 12.6066C23.6896 11.1051 22.3312 9.90386 20.7012 9.90386C20.4839 9.90386 20.2665 9.90386 20.1035 9.95391H20.0492L19.9949 9.75371C19.7232 8.65261 18.6365 7.80176 17.3325 7.80176C16.9522 7.80176 16.6262 7.85181 16.3002 8.00196L16.1372 8.05201L16.0285 7.90186C15.2135 6.85081 13.9095 6.15012 12.3881 6.15012C10.7038 6.15012 9.23674 7.00096 8.5304 8.25221L8.42173 8.50246L8.25873 8.45241C8.15006 8.45241 8.0414 8.45241 7.93273 8.45241C6.79171 8.45241 5.75937 9.00296 5.1617 9.80376V9.85381L4.99869 9.80376C4.72702 9.75371 4.45535 9.70366 4.18369 9.70366C3.26001 9.70366 2.445 10.1541 1.95599 10.7547L1.73866 11.1551L1.62999 11.1051C1.52132 11.1051 1.46699 11.1051 1.35832 11.1051C0.597645 11.1051 -2.86102e-05 11.6556 -2.86102e-05 12.3063C-2.86102e-05 12.9569 0.597645 13.5075 1.35832 13.5075C1.52132 13.5075 1.73866 13.4574 1.90166 13.4074L1.95599 13.3573L1.84733 13.4574C2.06466 13.7077 2.282 13.9579 2.55367 14.108L2.98834 14.3082L3.09701 14.4584C3.58601 15.109 4.40102 15.5094 5.3247 15.5094C5.70503 15.5094 6.03104 15.4594 6.35704 15.3092L6.41138 15.2592V15.3092C6.95472 16.4604 8.2044 17.2612 9.67141 17.2612C10.2691 17.2612 10.8668 17.111 11.3558 16.8608L11.4101 16.9108C12.3881 17.6115 13.5291 18.0119 14.7788 18.0119Z" fill="url(#paint0_linear_50:4149)"/>
<defs>
<linearGradient id="paint0_linear_50:4149" x1="11.79" y1="7.52507" x2="11.79" y2="23.0328" gradientUnits="userSpaceOnUse">
<stop stop-color="white"/>
<stop offset="1" stop-color="#86A4AA"/>
</linearGradient>
</defs>
</svg>
