<svg width="24" height="24" viewBox="0 0 24 24" fill="none" xmlns="http://www.w3.org/2000/svg">
<path fill-rule="evenodd" clip-rule="evenodd" d="M16.3652 15.3707C18.1542 15.3707 19.6748 14.3581 20.3457 12.9235L20.793 13.05C20.9271 13.0922 21.106 13.0922 21.2402 13.0922C22.582 13.0922 23.7001 12.0796 23.7001 10.8138C23.7001 9.54793 22.582 8.53527 21.2402 8.53527C21.0613 8.53527 20.8824 8.53527 20.7482 8.57746H20.7035L19.8001 9.37071C19.5764 8.44244 19.5407 6.76312 18.4673 6.76312C18.1542 6.76312 17.8859 6.80531 17.6175 6.93189L17.4833 6.97409L17.3939 6.84751C16.723 5.96143 15.6496 5.37071 14.3973 5.37071C13.0109 5.37071 11.8033 6.08801 11.2219 7.14286L11.1324 7.35384L10.9982 7.31164C10.9088 7.31164 10.8193 7.31164 10.7299 7.31164C9.79067 7.31164 8.9409 7.77578 8.44893 8.45088V8.49308L8.31475 8.45088C8.09113 8.40869 7.8675 8.36649 7.64388 8.36649C6.88356 8.36649 7.06246 9.08379 6.65993 9.59012H5.63126L5.54181 9.54793C5.45237 9.54793 5.40764 9.54793 5.31819 9.54793C4.69205 9.54793 4.20007 10.0121 4.20007 10.5606C4.20007 11.1091 4.69205 11.5732 5.31819 11.5732C5.45237 11.5732 5.63127 11.5311 5.76544 11.4889L5.81016 11.4467L5.72071 11.5311C5.89961 11.742 6.07851 11.953 6.30214 12.0796L6.65993 12.2484L6.74938 12.3749C7.15191 12.9235 7.82278 13.261 8.5831 13.261C8.89617 13.261 9.16452 13.2188 9.43287 13.0922L9.47759 13.05V13.0922C9.92484 14.0627 10.9535 14.7378 12.1611 14.7378C12.6531 14.7378 13.145 14.6112 13.5476 14.4002L13.5923 14.4424C14.3973 15.0332 15.3365 15.3707 16.3652 15.3707Z" fill="white"/>
<path fill-rule="evenodd" clip-rule="evenodd" d="M16.199 15.124C17.9669 15.124 19.4697 14.1116 20.1327 12.6774L20.5746 12.8039C20.7072 12.8461 20.884 12.8461 21.0166 12.8461C22.3426 12.8461 23.4476 11.8337 23.4476 10.5682C23.4476 9.3027 22.3426 8.2903 21.0166 8.2903C20.8398 8.2903 20.663 8.2903 20.5304 8.33248H20.4862L20.442 8.16375C20.2211 7.23571 19.3371 6.51858 18.2763 6.51858C17.9669 6.51858 17.7017 6.56077 17.4365 6.68732L17.3039 6.7295L17.2155 6.60295C16.5525 5.7171 15.4918 5.12653 14.2542 5.12653C12.884 5.12653 11.6907 5.84365 11.1161 6.89824L11.0277 7.10916L10.8951 7.06697C10.8067 7.06697 10.7183 7.06697 10.6299 7.06697C9.70172 7.06697 8.86194 7.53099 8.37575 8.20593V8.24811L8.24315 8.20593C8.02216 8.16375 7.80116 8.12156 7.58017 8.12156C6.82879 8.12156 6.16581 8.50121 5.76802 9.00742L5.59122 9.34489L5.50282 9.3027C5.41443 9.3027 5.37023 9.3027 5.28183 9.3027C4.66305 9.3027 4.17686 9.76672 4.17686 10.3151C4.17686 10.8635 4.66305 11.3275 5.28183 11.3275C5.41443 11.3275 5.59122 11.2853 5.72382 11.2431L5.76802 11.201L5.67962 11.2853C5.85641 11.4963 6.03321 11.7072 6.2542 11.8337L6.6078 12.0025L6.69619 12.129C7.09398 12.6774 7.75696 13.0149 8.50835 13.0149C8.81774 13.0149 9.08293 12.9727 9.34813 12.8461L9.39232 12.8039V12.8461C9.83431 13.8163 10.8509 14.4913 12.0443 14.4913C12.5304 14.4913 13.0166 14.3647 13.4144 14.1538L13.4586 14.196C14.2542 14.7866 15.1824 15.124 16.199 15.124Z" fill="url(#paint0_linear_50:4425)"/>
<path opacity="0.1176" fill-rule="evenodd" clip-rule="evenodd" d="M21.0608 8.16377L20.6188 8.20595V8.12159C20.3978 7.15136 19.4696 6.39206 18.3647 6.39206C18.0553 6.39206 17.7459 6.43424 17.4807 6.56079H17.4365L17.3923 6.51861C16.7293 5.59057 15.6243 5 14.3426 5C12.9282 5 11.7348 5.71712 11.0718 6.81389L11.0277 6.94045H10.9393C10.8509 6.94045 10.7625 6.94045 10.6299 6.94045C9.79008 6.94045 8.9945 7.27791 8.46412 7.86848L8.28732 8.0794H8.24312C8.02213 7.99503 7.80113 7.99504 7.53594 7.99504C6.74036 7.99504 6.03318 8.37469 5.63539 8.96526L5.50279 9.17618H5.45859C5.37019 9.17618 5.2818 9.13399 5.1934 9.13399C4.57461 11.4541 22.4752 11.3275 21.0608 8.16377Z" fill="white"/>
<path opacity="0.4627" fill-rule="evenodd" clip-rule="evenodd" d="M13.0829 16.9851C14.4973 16.9851 15.6906 16.268 16.3978 15.2556L16.6188 14.8759L16.9282 14.9603C17.0608 15.0025 17.1934 15.0025 17.3702 15.0025C18.6078 15.0025 19.6243 14.0744 19.6243 12.8933C19.6243 11.7965 18.7404 10.9107 17.5912 10.7841H17.4144H17.3702L17.0166 10.8263V10.7419C16.8398 9.85608 16 9.22332 15.0276 9.22332C14.7625 9.22332 14.4973 9.26551 14.2321 9.39206L14.1879 9.34988C13.6133 8.54839 12.5967 8 11.4917 8C10.2542 8 9.14919 8.63275 8.6188 9.60298L8.57461 9.72953H8.53041C8.44201 9.72953 8.35361 9.72953 8.26521 9.72953L7.20444 15.0868L7.33704 15.3399C7.82323 16.0571 8.663 16.5211 9.59118 16.5211C9.94477 16.5211 10.2542 16.4789 10.5636 16.3524L10.8287 16.2258L11.3591 16.5633C11.7127 16.8164 12.3757 16.9851 13.0829 16.9851Z" fill="#93B3C1"/>
<path fill-rule="evenodd" clip-rule="evenodd" d="M12.3652 18.3707C14.1542 18.3707 15.6748 17.3581 16.3457 15.9235L16.793 16.05C16.9271 16.0922 17.106 16.0922 17.2402 16.0922C18.582 16.0922 19.7001 15.0796 19.7001 13.8138C19.7001 12.5479 18.582 11.5353 17.2402 11.5353C17.0613 11.5353 16.8824 11.5353 16.7482 11.5775H16.7035L15.8001 12.3707C15.5764 11.4424 15.5407 9.76312 14.4673 9.76312C14.1542 9.76312 13.8859 9.80531 13.6175 9.93189L13.4833 9.97409L13.3939 9.84751C12.723 8.96143 11.6496 8.37071 10.3973 8.37071C9.01085 8.37071 7.80328 9.08801 7.22186 10.1429L7.13241 10.3538L6.99824 10.3116C6.90879 10.3116 6.81934 10.3116 6.72989 10.3116C5.79067 10.3116 4.9409 10.7758 4.44893 11.4509V11.4931L4.31475 11.4509C4.09113 11.4087 3.8675 11.3665 3.64388 11.3665C2.88356 11.3665 3.06246 12.0838 2.65993 12.5901H1.63126L1.54181 12.5479C1.45237 12.5479 1.40764 12.5479 1.31819 12.5479C0.692045 12.5479 0.200073 13.0121 0.200073 13.5606C0.200073 14.1091 0.692045 14.5732 1.31819 14.5732C1.45237 14.5732 1.63127 14.5311 1.76544 14.4889L1.81016 14.4467L1.72071 14.5311C1.89961 14.742 2.07851 14.953 2.30214 15.0796L2.65993 15.2484L2.74938 15.3749C3.15191 15.9235 3.82278 16.261 4.5831 16.261C4.89617 16.261 5.16452 16.2188 5.43287 16.0922L5.47759 16.05V16.0922C5.92484 17.0627 6.95351 17.7378 8.16108 17.7378C8.65305 17.7378 9.14503 17.6112 9.54755 17.4002L9.59227 17.4424C10.3973 18.0332 11.3365 18.3707 12.3652 18.3707Z" fill="white"/>
<path fill-rule="evenodd" clip-rule="evenodd" d="M12.199 18.124C13.9669 18.124 15.4697 17.1116 16.1327 15.6774L16.5746 15.8039C16.7072 15.8461 16.884 15.8461 17.0166 15.8461C18.3426 15.8461 19.4476 14.8337 19.4476 13.5682C19.4476 12.3027 18.3426 11.2903 17.0166 11.2903C16.8398 11.2903 16.663 11.2903 16.5304 11.3325H16.4862L16.442 11.1637C16.2211 10.2357 15.3371 9.51858 14.2763 9.51858C13.9669 9.51858 13.7017 9.56077 13.4365 9.68732L13.3039 9.7295L13.2155 9.60295C12.5525 8.7171 11.4918 8.12653 10.2542 8.12653C8.88404 8.12653 7.69067 8.84365 7.11608 9.89824L7.02768 10.1092L6.89509 10.067C6.80669 10.067 6.71829 10.067 6.62989 10.067C5.70172 10.067 4.86194 10.531 4.37575 11.2059V11.2481L4.24315 11.2059C4.02216 11.1637 3.80116 11.1216 3.58017 11.1216C2.82879 11.1216 2.16581 11.5012 1.76802 12.0074L1.59122 12.3449L1.50282 12.3027C1.41443 12.3027 1.37023 12.3027 1.28183 12.3027C0.663046 12.3027 0.176857 12.7667 0.176857 13.3151C0.176857 13.8635 0.663046 14.3275 1.28183 14.3275C1.41443 14.3275 1.59122 14.2853 1.72382 14.2431L1.76802 14.201L1.67962 14.2853C1.85641 14.4963 2.03321 14.7072 2.2542 14.8337L2.6078 15.0025L2.69619 15.129C3.09398 15.6774 3.75696 16.0149 4.50835 16.0149C4.81774 16.0149 5.08293 15.9727 5.34813 15.8461L5.39232 15.8039V15.8461C5.83431 16.8163 6.85089 17.4913 8.04426 17.4913C8.53045 17.4913 9.01663 17.3647 9.41442 17.1538L9.45862 17.196C10.2542 17.7866 11.1824 18.124 12.199 18.124Z" fill="url(#paint1_linear_50:4425)"/>
<path opacity="0.1176" fill-rule="evenodd" clip-rule="evenodd" d="M17.0608 11.1638L16.6188 11.206V11.1216C16.3978 10.1514 15.4696 9.39206 14.3647 9.39206C14.0553 9.39206 13.7459 9.43424 13.4807 9.56079H13.4365L13.3923 9.51861C12.7293 8.59057 11.6243 8 10.3426 8C8.9282 8 7.73483 8.71712 7.07185 9.81389L7.02765 9.94045H6.93925C6.85086 9.94045 6.76246 9.94045 6.62986 9.94045C5.79008 9.94045 4.9945 10.2779 4.46412 10.8685L4.28732 11.0794H4.24312C4.02213 10.995 3.80113 10.995 3.53594 10.995C2.74036 10.995 2.03318 11.3747 1.63539 11.9653L1.50279 12.1762H1.45859C1.37019 12.1762 1.2818 12.134 1.1934 12.134C0.574614 14.4541 18.4752 14.3275 17.0608 11.1638Z" fill="white"/>
<defs>
<linearGradient id="paint0_linear_50:4425" x1="14.0786" y1="15.2714" x2="13.7078" y2="8.4527" gradientUnits="userSpaceOnUse">
<stop stop-color="#758A8F"/>
<stop offset="1" stop-color="#93B6BD"/>
</linearGradient>
<linearGradient id="paint1_linear_50:4425" x1="10.0786" y1="18.2714" x2="9.70781" y2="11.4527" gradientUnits="userSpaceOnUse">
<stop stop-color="#758A8F"/>
<stop offset="1" stop-color="#93B6BD"/>
</linearGradient>
</defs>
</svg>
