<svg width="24" height="24" viewBox="0 0 24 24" fill="none" xmlns="http://www.w3.org/2000/svg">
<path fill-rule="evenodd" clip-rule="evenodd" d="M16.3652 13.3707C18.1542 13.3707 19.6748 12.3581 20.3457 10.9235L20.793 11.05C20.9271 11.0922 21.106 11.0922 21.2402 11.0922C22.582 11.0922 23.7001 10.0796 23.7001 8.81375C23.7001 7.54793 22.582 6.53527 21.2402 6.53527C21.0613 6.53527 20.8824 6.53527 20.7482 6.57746H20.7035L19.8001 7.37071C19.5764 6.44244 19.5407 4.76312 18.4673 4.76312C18.1542 4.76312 17.8859 4.80531 17.6175 4.93189L17.4833 4.97409L17.3939 4.84751C16.723 3.96143 15.6496 3.37071 14.3973 3.37071C13.0109 3.37071 11.8033 4.08801 11.2219 5.14286L11.1324 5.35384L10.9982 5.31164C10.9088 5.31164 10.8193 5.31164 10.7299 5.31164C9.79067 5.31164 8.9409 5.77578 8.44893 6.45088V6.49308L8.31475 6.45088C8.09113 6.40869 7.8675 6.36649 7.64388 6.36649C6.88356 6.36649 7.06246 7.08379 6.65993 7.59012H5.63126L5.54181 7.54793C5.45237 7.54793 5.40764 7.54793 5.31819 7.54793C4.69205 7.54793 4.20007 8.01206 4.20007 8.56059C4.20007 9.10911 4.69205 9.57324 5.31819 9.57324C5.45237 9.57324 5.63127 9.53105 5.76544 9.48886L5.81016 9.44666L5.72071 9.53105C5.89961 9.74202 6.07851 9.95299 6.30214 10.0796L6.65993 10.2484L6.74938 10.3749C7.15191 10.9235 7.82278 11.261 8.5831 11.261C8.89617 11.261 9.16452 11.2188 9.43287 11.0922L9.47759 11.05V11.0922C9.92484 12.0627 10.9535 12.7378 12.1611 12.7378C12.6531 12.7378 13.145 12.6112 13.5476 12.4002L13.5923 12.4424C14.3973 13.0332 15.3365 13.3707 16.3652 13.3707Z" fill="white"/>
<path fill-rule="evenodd" clip-rule="evenodd" d="M16.199 13.124C17.967 13.124 19.4697 12.1116 20.1327 10.6774L20.5747 10.8039C20.7073 10.8461 20.8841 10.8461 21.0167 10.8461C22.3427 10.8461 23.4476 9.83372 23.4476 8.56821C23.4476 7.3027 22.3427 6.2903 21.0167 6.2903C20.8399 6.2903 20.6631 6.2903 20.5305 6.33248H20.4863L20.4421 6.16375C20.2211 5.23571 19.3371 4.51858 18.2764 4.51858C17.967 4.51858 17.7018 4.56077 17.4366 4.68732L17.304 4.7295L17.2156 4.60295C16.5526 3.7171 15.4918 3.12653 14.2543 3.12653C12.8841 3.12653 11.6907 3.84365 11.1161 4.89824L11.0277 5.10916L10.8951 5.06697C10.8068 5.06697 10.7184 5.06697 10.63 5.06697C9.70178 5.06697 8.862 5.53099 8.37581 6.20593V6.24811L8.24321 6.20593C8.02222 6.16375 7.80123 6.12156 7.58023 6.12156C6.82885 6.12156 6.16587 6.50121 5.76808 7.00742L5.59128 7.34489L5.50289 7.3027C5.41449 7.3027 5.37029 7.3027 5.28189 7.3027C4.66311 7.3027 4.17692 7.76672 4.17692 8.31511C4.17692 8.8635 4.66311 9.32752 5.28189 9.32752C5.41449 9.32752 5.59128 9.28533 5.72388 9.24315L5.76808 9.20096L5.67968 9.28533C5.85648 9.49625 6.03327 9.70717 6.25426 9.83372L6.60786 10.0025L6.69625 10.129C7.09404 10.6774 7.75703 11.0149 8.50841 11.0149C8.8178 11.0149 9.08299 10.9727 9.34819 10.8461L9.39239 10.8039V10.8461C9.83437 11.8163 10.8509 12.4913 12.0443 12.4913C12.5305 12.4913 13.0167 12.3647 13.4145 12.1538L13.4587 12.196C14.2543 12.7866 15.1824 13.124 16.199 13.124Z" fill="url(#paint0_linear_25:446)"/>
<path opacity="0.1176" fill-rule="evenodd" clip-rule="evenodd" d="M21.0609 6.16377L20.6189 6.20595V6.12159C20.3979 5.15136 19.4697 4.39206 18.3647 4.39206C18.0553 4.39206 17.7459 4.43424 17.4808 4.56079H17.4366L17.3924 4.51861C16.7294 3.59057 15.6244 3 14.3426 3C12.9283 3 11.7349 3.71712 11.0719 4.81389L11.0277 4.94045H10.9393C10.8509 4.94045 10.7625 4.94045 10.6299 4.94045C9.79014 4.94045 8.99456 5.27791 8.46418 5.86848L8.28738 6.0794H8.24318C8.02219 5.99503 7.80119 5.99504 7.536 5.99504C6.74042 5.99504 6.03324 6.37469 5.63545 6.96526L5.50285 7.17618H5.45865C5.37025 7.17618 5.28186 7.13399 5.19346 7.13399C4.57467 9.45409 22.4752 9.32754 21.0609 6.16377Z" fill="white"/>
<path opacity="0.4627" fill-rule="evenodd" clip-rule="evenodd" d="M13.083 14.9851C14.4973 14.9851 15.6907 14.268 16.3979 13.2556L16.6189 12.8759L16.9283 12.9603C17.0609 13.0025 17.1935 13.0025 17.3702 13.0025C18.6078 13.0025 19.6244 12.0744 19.6244 10.8933C19.6244 9.79652 18.7404 8.91067 17.5912 8.78412H17.4144H17.3702L17.0167 8.8263V8.74193C16.8399 7.85608 16.0001 7.22332 15.0277 7.22332C14.7625 7.22332 14.4973 7.26551 14.2321 7.39206L14.1879 7.34988C13.6133 6.54839 12.5968 6 11.4918 6C10.2542 6 9.14925 6.63275 8.61887 7.60298L8.57467 7.72953H8.53047C8.44207 7.72953 8.35367 7.72953 8.26528 7.72953L7.2045 13.0868L7.3371 13.3399C7.82329 14.0571 8.66306 14.5211 9.59124 14.5211C9.94483 14.5211 10.2542 14.4789 10.5636 14.3524L10.8288 14.2258L11.3592 14.5633C11.7128 14.8164 12.3758 14.9851 13.083 14.9851Z" fill="#93B3C1"/>
<path fill-rule="evenodd" clip-rule="evenodd" d="M12.3652 16.3707C14.1542 16.3707 15.6748 15.3581 16.3457 13.9235L16.793 14.05C16.9271 14.0922 17.106 14.0922 17.2402 14.0922C18.582 14.0922 19.7001 13.0796 19.7001 11.8138C19.7001 10.5479 18.582 9.53527 17.2402 9.53527C17.0613 9.53527 16.8824 9.53527 16.7482 9.57746H16.7035L15.8001 10.3707C15.5764 9.44244 15.5407 7.76312 14.4673 7.76312C14.1542 7.76312 13.8859 7.80531 13.6175 7.93189L13.4833 7.97409L13.3939 7.84751C12.723 6.96143 11.6496 6.37071 10.3973 6.37071C9.01085 6.37071 7.80328 7.08801 7.22186 8.14286L7.13241 8.35384L6.99824 8.31164C6.90879 8.31164 6.81934 8.31164 6.72989 8.31164C5.79067 8.31164 4.9409 8.77578 4.44893 9.45088V9.49308L4.31475 9.45088C4.09113 9.40869 3.8675 9.36649 3.64388 9.36649C2.88356 9.36649 3.06246 10.0838 2.65993 10.5901H1.63126L1.54181 10.5479C1.45237 10.5479 1.40764 10.5479 1.31819 10.5479C0.692045 10.5479 0.200073 11.0121 0.200073 11.5606C0.200073 12.1091 0.692045 12.5732 1.31819 12.5732C1.45237 12.5732 1.63127 12.5311 1.76544 12.4889L1.81016 12.4467L1.72071 12.5311C1.89961 12.742 2.07851 12.953 2.30214 13.0796L2.65993 13.2484L2.74938 13.3749C3.15191 13.9235 3.82278 14.261 4.5831 14.261C4.89617 14.261 5.16452 14.2188 5.43287 14.0922L5.47759 14.05V14.0922C5.92484 15.0627 6.95351 15.7378 8.16108 15.7378C8.65305 15.7378 9.14503 15.6112 9.54755 15.4002L9.59227 15.4424C10.3973 16.0332 11.3365 16.3707 12.3652 16.3707Z" fill="white"/>
<path fill-rule="evenodd" clip-rule="evenodd" d="M12.199 16.124C13.967 16.124 15.4697 15.1116 16.1327 13.6774L16.5747 13.8039C16.7073 13.8461 16.8841 13.8461 17.0167 13.8461C18.3427 13.8461 19.4476 12.8337 19.4476 11.5682C19.4476 10.3027 18.3427 9.2903 17.0167 9.2903C16.8399 9.2903 16.6631 9.2903 16.5305 9.33248H16.4863L16.4421 9.16375C16.2211 8.23571 15.3371 7.51858 14.2764 7.51858C13.967 7.51858 13.7018 7.56077 13.4366 7.68732L13.304 7.7295L13.2156 7.60295C12.5526 6.7171 11.4918 6.12653 10.2543 6.12653C8.8841 6.12653 7.69073 6.84365 7.11614 7.89824L7.02775 8.10916L6.89515 8.06697C6.80675 8.06697 6.71835 8.06697 6.62995 8.06697C5.70178 8.06697 4.862 8.53099 4.37581 9.20593V9.24811L4.24321 9.20593C4.02222 9.16375 3.80123 9.12156 3.58023 9.12156C2.82885 9.12156 2.16587 9.50121 1.76808 10.0074L1.59128 10.3449L1.50289 10.3027C1.41449 10.3027 1.37029 10.3027 1.28189 10.3027C0.663107 10.3027 0.176918 10.7667 0.176918 11.3151C0.176918 11.8635 0.663107 12.3275 1.28189 12.3275C1.41449 12.3275 1.59128 12.2853 1.72388 12.2431L1.76808 12.201L1.67968 12.2853C1.85648 12.4963 2.03327 12.7072 2.25426 12.8337L2.60786 13.0025L2.69625 13.129C3.09404 13.6774 3.75703 14.0149 4.50841 14.0149C4.8178 14.0149 5.08299 13.9727 5.34819 13.8461L5.39239 13.8039V13.8461C5.83437 14.8163 6.85095 15.4913 8.04432 15.4913C8.53051 15.4913 9.0167 15.3647 9.41448 15.1538L9.45868 15.196C10.2543 15.7866 11.1824 16.124 12.199 16.124Z" fill="url(#paint1_linear_25:446)"/>
<path opacity="0.1176" fill-rule="evenodd" clip-rule="evenodd" d="M17.0609 9.16377L16.6189 9.20595V9.12159C16.3979 8.15136 15.4697 7.39206 14.3647 7.39206C14.0553 7.39206 13.7459 7.43424 13.4808 7.56079H13.4366L13.3924 7.51861C12.7294 6.59057 11.6244 6 10.3426 6C8.92826 6 7.73489 6.71712 7.07191 7.81389L7.02771 7.94045H6.93931C6.85092 7.94045 6.76252 7.94045 6.62992 7.94045C5.79014 7.94045 4.99456 8.27791 4.46418 8.86848L4.28738 9.0794H4.24318C4.02219 8.99503 3.80119 8.99504 3.536 8.99504C2.74042 8.99504 2.03324 9.37469 1.63545 9.96526L1.50285 10.1762H1.45865C1.37025 10.1762 1.28186 10.134 1.19346 10.134C0.574675 12.4541 18.4752 12.3275 17.0609 9.16377Z" fill="white"/>
<path d="M1.51097 15.7038C1.22877 16.3193 1.12955 16.8777 1.28937 16.9509C1.4492 17.0242 1.80752 16.5847 2.08973 15.9692C2.37194 15.3537 2.77836 13.7034 2.77836 13.7034C2.77836 13.7034 1.7932 15.0883 1.51097 15.7038Z" fill="#63AFF9"/>
<path d="M9.64624 20.2681C9.28937 21.0465 9.14112 21.7421 9.3151 21.8219C9.4891 21.9017 9.91943 21.3354 10.2763 20.557C10.6332 19.7787 11.198 17.7151 11.198 17.7151C11.198 17.7151 10.0031 19.4897 9.64624 20.2681Z" fill="#63AFF9"/>
<path d="M14.4397 18.406C14.1969 18.9356 14.1025 19.4118 14.2288 19.4698C14.3551 19.5277 14.6544 19.1453 14.8972 18.6158C15.14 18.0862 15.5099 16.6756 15.5099 16.6756C15.5099 16.6756 14.6825 17.8764 14.4397 18.406Z" fill="#63AFF9"/>
<path d="M18.4263 16.3505C18.1909 16.864 18.1187 17.3348 18.265 17.4019C18.4114 17.469 18.721 17.1071 18.9564 16.5935C19.1919 16.08 19.5074 14.6922 19.5074 14.6922C19.5074 14.6922 18.6618 15.8369 18.4263 16.3505Z" fill="#63AFF9"/>
<path d="M5.50137 18.6638C5.22445 19.2678 5.13419 19.819 5.29977 19.8949C5.46536 19.9708 5.82407 19.5427 6.10099 18.9388C6.37791 18.3348 6.76085 16.7082 6.76085 16.7082C6.76085 16.7082 5.77831 18.0598 5.50137 18.6638Z" fill="#63AFF9"/>
<defs>
<linearGradient id="paint0_linear_25:446" x1="13.7678" y1="4.28538" x2="13.7678" y2="17.3558" gradientUnits="userSpaceOnUse">
<stop stop-color="white"/>
<stop offset="1" stop-color="#86A4AA"/>
</linearGradient>
<linearGradient id="paint1_linear_25:446" x1="9.76776" y1="7.28538" x2="9.76776" y2="20.3558" gradientUnits="userSpaceOnUse">
<stop stop-color="white"/>
<stop offset="1" stop-color="#86A4AA"/>
</linearGradient>
</defs>
</svg>
