<svg width="24" height="24" viewBox="0 0 24 24" fill="none" xmlns="http://www.w3.org/2000/svg">
<path opacity="0.502" fill-rule="evenodd" clip-rule="evenodd" d="M6.23812 11.0957L9.19788 10.9751L6.99316 12.9349L9.83212 12.0907L8.17103 14.5329L10.708 12.9952L9.71131 15.7993L11.7952 13.6585L11.5234 16.6134L13.0033 14.0505L13.4865 16.9752L14.2718 14.1108L15.4798 16.8244L15.51 13.8696L17.3523 16.1913L16.6577 13.3269L19.0134 15.1058L17.6241 12.4826L20.3725 13.6585L18.3792 11.4575L21.3087 11.9098L18.8322 10.2816L21.792 9.98007L18.9832 9.01523L21.7618 7.99008L18.802 7.74887L21.2483 6.09054L18.3188 6.57297L20.2819 4.34177L17.5637 5.57797L18.8926 2.92465L16.5671 4.76388L17.2013 1.86935L15.4194 4.22116L15.3288 1.26633L14.1811 4.0101L13.3355 1.17587L12.9127 4.10055L11.3724 1.56784L11.7046 4.49252L9.5905 2.41208L10.6476 5.186L8.08042 3.70859L9.77171 6.1207L6.93276 5.30661L9.16768 7.2363L6.20792 7.17599L8.86566 8.4725L5.96631 9.13583L8.89587 9.73886L6.23812 11.0957Z" fill="#FFBF00"/>
<path fill-rule="evenodd" clip-rule="evenodd" d="M5.48306 12.5128L8.83544 11.9098L6.60052 14.4727L9.71129 13.0857L8.20121 16.131L10.8589 13.9902L10.1341 17.337L12.1878 14.6234L12.3086 18.0004L13.6073 14.8646L14.5737 18.121L15.057 14.7742L16.8087 17.6687L16.4462 14.2917L18.8624 16.6737L17.6845 13.5078L20.6141 15.2264L18.651 12.4224L21.9429 13.3571L19.3456 11.156L22.7584 11.2465L19.708 9.73889L23 8.98511L19.6778 8.29163L22.698 6.72375L19.3154 6.87451L21.8523 4.61316L18.5906 5.60815L20.4933 2.77393L17.5637 4.55286L18.7114 1.35681L16.3254 3.79907L16.6275 0.391968L14.9362 3.3468L14.3925 0L13.4865 3.2865L12.1274 0.150757L12.067 3.55786L9.9529 0.904541L10.7381 4.19104L8.0502 2.14075L9.62068 5.12573L6.50992 3.79907L8.77504 6.33179L5.42266 5.81921L8.26161 7.6886L4.87903 8.02026L8.1106 9.13586L4.90923 10.3118L8.29181 10.5831L5.48306 12.5128Z" fill="url(#paint0_linear_50:4050)"/>
<path fill-rule="evenodd" clip-rule="evenodd" d="M7.80863 9.40726C7.50661 6.06046 9.98314 3.10563 13.3355 2.80411C16.6879 2.5026 19.6477 4.97501 19.9497 8.32181C20.2517 11.6686 17.7752 14.6234 14.4228 14.925C11.0402 15.2265 8.11064 12.7541 7.80863 9.40726Z" fill="url(#paint1_linear_50:4050)"/>
<path opacity="0.1176" fill-rule="evenodd" clip-rule="evenodd" d="M7.80863 9.40723C7.50661 6.06043 9.98314 3.1056 13.3355 2.83424C16.6879 2.53272 19.6477 5.00513 19.9497 8.35194C20.4631 12.2113 8.41266 13.4475 7.80863 9.40723Z" fill="#FFFF00"/>
<path opacity="0.2549" fill-rule="evenodd" clip-rule="evenodd" d="M8.80531 8.02028C7.98987 6.72377 8.74491 4.82424 10.557 3.82924C12.3389 2.83425 14.453 3.07546 15.2685 4.40212C16.0839 5.69863 15.3289 7.59816 13.5168 8.59316C11.7349 9.58815 9.62076 9.34694 8.80531 8.02028Z" fill="#FFFF00"/>
<path fill-rule="evenodd" clip-rule="evenodd" d="M13.7885 14.8043C14 14.8043 14.1812 14.8043 14.3926 14.7742C17.6544 14.5028 20.1007 11.6083 19.7987 8.32177C19.4967 5.03527 16.6275 2.62316 13.3355 2.92467C10.0737 3.22619 7.65762 6.12072 7.92943 9.37707C8.20124 12.4525 10.7684 14.7742 13.7885 14.8043ZM13.7885 15.0757C10.6174 15.0455 7.95963 12.6033 7.65762 9.40722C7.3858 6.00011 9.89253 2.98498 13.3355 2.68346C16.7483 2.38195 19.7685 4.91466 20.0705 8.32177C20.3725 11.7289 17.8356 14.744 14.4228 15.0455C14.2114 15.0757 14 15.0757 13.7885 15.0757Z" fill="url(#paint2_linear_50:4050)"/>
<path opacity="0.4627" fill-rule="evenodd" clip-rule="evenodd" d="M13.8885 16.1507C15.2967 16.2579 16.5355 15.6826 17.3112 14.7963L17.5581 14.4606L17.8602 14.5624C17.9892 14.6116 18.1212 14.6216 18.2972 14.635C19.5294 14.7289 20.6071 13.9444 20.6907 12.8477C20.7682 11.8294 19.9508 10.9399 18.8156 10.7353L18.6396 10.7219L18.5956 10.7185L18.2406 10.7309L18.2465 10.6525C18.1331 9.81664 17.3418 9.16547 16.3737 9.09172C16.1097 9.07161 15.8426 9.09067 15.5697 9.18805L15.5286 9.14553C15.0133 8.35781 14.0399 7.77157 12.9398 7.68777C11.7076 7.59391 10.5628 8.09759 9.96608 8.95817L9.91313 9.07232L9.86912 9.06896C9.78111 9.06226 9.6931 9.05556 9.60509 9.04885L8.17008 13.9424L8.2842 14.1875C8.71754 14.8902 9.52082 15.3847 10.4449 15.4551C10.797 15.4819 11.108 15.4662 11.425 15.3721L11.698 15.2748L12.2022 15.6283C12.5363 15.8901 13.1844 16.097 13.8885 16.1507Z" fill="#A75001" fill-opacity="0.3"/>
<path fill-rule="evenodd" clip-rule="evenodd" d="M14.1103 19C16.0346 19 17.6703 17.9107 18.3919 16.3676L18.873 16.5038C19.0173 16.5492 19.2097 16.5492 19.3541 16.5492C20.7973 16.5492 22 15.4599 22 14.0983C22 12.7368 20.7973 11.6475 19.3541 11.6475C19.1616 11.6475 18.9692 11.6475 18.8249 11.6929H18.7768L17.805 12.5461C17.5644 11.5476 17.526 9.74128 16.3714 9.74128C16.0346 9.74128 15.746 9.78667 15.4573 9.92282L15.313 9.96821L15.2168 9.83205C14.4951 8.87895 13.3406 8.24355 11.9935 8.24355C10.5022 8.24355 9.20327 9.01511 8.57786 10.1498L8.48165 10.3767L8.33732 10.3313C8.24111 10.3313 8.14489 10.3313 8.04867 10.3313C7.03841 10.3313 6.12435 10.8305 5.59517 11.5567V11.6021L5.45084 11.5567C5.2103 11.5113 4.96976 11.4659 4.72922 11.4659C3.91138 11.4659 4.10382 12.2375 3.67085 12.7821H2.56436L2.46814 12.7368C2.37193 12.7368 2.32382 12.7368 2.2276 12.7368C1.55409 12.7368 1.0249 13.236 1.0249 13.826C1.0249 14.416 1.55409 14.9153 2.2276 14.9153C2.37193 14.9153 2.56436 14.8699 2.70868 14.8245L2.75679 14.7791L2.66058 14.8699C2.85301 15.0968 3.04544 15.3237 3.28598 15.4599L3.67085 15.6414L3.76706 15.7776C4.20003 16.3676 4.92165 16.7307 5.73949 16.7307C6.07624 16.7307 6.36489 16.6853 6.65354 16.5492L6.70165 16.5038V16.5492C7.18273 17.593 8.28921 18.3192 9.58813 18.3192C10.1173 18.3192 10.6465 18.1831 11.0795 17.9561L11.1276 18.0015C11.9935 18.6369 13.0038 19 14.1103 19Z" fill="white"/>
<path fill-rule="evenodd" clip-rule="evenodd" d="M13.9314 18.7347C15.8331 18.7347 17.4496 17.6457 18.1627 16.1029L18.6381 16.2391C18.7808 16.2844 18.9709 16.2844 19.1136 16.2844C20.5398 16.2844 21.7284 15.1954 21.7284 13.8342C21.7284 12.473 20.5398 11.384 19.1136 11.384C18.9234 11.384 18.7332 11.384 18.5906 11.4294H18.5431L18.4955 11.2479C18.2578 10.2496 17.307 9.47824 16.1659 9.47824C15.8331 9.47824 15.5479 9.52362 15.2626 9.65974L15.12 9.70512L15.0249 9.56899C14.3118 8.61613 13.1708 7.98088 11.8396 7.98088C10.3658 7.98088 9.08213 8.75225 8.46408 9.88662L8.36899 10.1135L8.22637 10.0681C8.13128 10.0681 8.03619 10.0681 7.94111 10.0681C6.94272 10.0681 6.03942 10.5672 5.51645 11.2932V11.3386L5.37382 11.2932C5.13611 11.2479 4.8984 11.2025 4.66069 11.2025C3.85247 11.2025 3.13933 11.6109 2.71145 12.1553L2.52128 12.5183L2.4262 12.473C2.33111 12.473 2.28357 12.473 2.18849 12.473C1.52289 12.473 0.999928 12.9721 0.999928 13.562C0.999928 14.1518 1.52289 14.651 2.18849 14.651C2.33111 14.651 2.52128 14.6056 2.66391 14.5602L2.71145 14.5148L2.61637 14.6056C2.80654 14.8324 2.99671 15.0593 3.23442 15.1954L3.61476 15.3769L3.70984 15.5131C4.13772 16.1029 4.85086 16.4659 5.65908 16.4659C5.99187 16.4659 6.27713 16.4206 6.56238 16.2844L6.60992 16.2391V16.2844C7.08535 17.3281 8.17882 18.054 9.46247 18.054C9.98543 18.054 10.5084 17.9179 10.9363 17.6911L10.9838 17.7364C11.8396 18.3717 12.838 18.7347 13.9314 18.7347Z" fill="url(#paint3_linear_50:4050)"/>
<path opacity="0.1176" fill-rule="evenodd" clip-rule="evenodd" d="M19.1612 11.2479L18.6857 11.2933V11.2025C18.448 10.1589 17.4496 9.34215 16.2611 9.34215C15.9283 9.34215 15.5955 9.38752 15.3102 9.52365H15.2627L15.2151 9.47827C14.502 8.48003 13.3134 7.84479 11.9347 7.84479C10.4134 7.84479 9.12972 8.61616 8.41659 9.7959L8.36904 9.93202H8.27396C8.17887 9.93202 8.08379 9.93202 7.94116 9.93202C7.03786 9.93202 6.1821 10.295 5.61159 10.9303L5.42142 11.1571H5.37388C5.13616 11.0664 4.89845 11.0664 4.6132 11.0664C3.75743 11.0664 2.99676 11.4748 2.56888 12.11L2.42625 12.3369H2.37871C2.28362 12.3369 2.18854 12.2915 2.09345 12.2915C1.42786 14.7871 20.6825 14.651 19.1612 11.2479Z" fill="white"/>
<path d="M3.40123 17.7038C3.11902 18.3193 3.01981 18.8777 3.17963 18.9509C3.33946 19.0242 3.69778 18.5847 3.97999 17.9692C4.2622 17.3537 4.66862 15.7034 4.66862 15.7034C4.66862 15.7034 3.68346 17.0883 3.40123 17.7038Z" fill="#63AFF9"/>
<path d="M11.5365 22.2681C11.1796 23.0465 11.0314 23.7421 11.2054 23.8219C11.3794 23.9017 11.8097 23.3354 12.1666 22.557C12.5234 21.7787 13.0883 19.7151 13.0883 19.7151C13.0883 19.7151 11.8934 21.4897 11.5365 22.2681Z" fill="#63AFF9"/>
<path d="M16.33 20.406C16.0872 20.9356 15.9927 21.4118 16.1191 21.4698C16.2454 21.5277 16.5446 21.1453 16.7874 20.6158C17.0302 20.0862 17.4002 18.6756 17.4002 18.6756C17.4002 18.6756 16.5728 19.8764 16.33 20.406Z" fill="#63AFF9"/>
<path d="M20.3166 18.3505C20.0811 18.864 20.0089 19.3348 20.1553 19.4019C20.3017 19.469 20.6112 19.1071 20.8467 18.5935C21.0822 18.08 21.3977 16.6922 21.3977 16.6922C21.3977 16.6922 20.5521 17.8369 20.3166 18.3505Z" fill="#63AFF9"/>
<path d="M7.39163 20.6638C7.11471 21.2678 7.02445 21.819 7.19003 21.8949C7.35562 21.9708 7.71433 21.5427 7.99125 20.9388C8.26816 20.3348 8.65111 18.7082 8.65111 18.7082C8.65111 18.7082 7.66856 20.0598 7.39163 20.6638Z" fill="#63AFF9"/>
<defs>
<linearGradient id="paint0_linear_50:4050" x1="13.0911" y1="4.5674" x2="15.5493" y2="18.1822" gradientUnits="userSpaceOnUse">
<stop stop-color="#FFBF00"/>
<stop offset="1" stop-color="#FF8000"/>
</linearGradient>
<linearGradient id="paint1_linear_50:4050" x1="13.327" y1="5.85252" x2="14.9741" y2="14.9875" gradientUnits="userSpaceOnUse">
<stop stop-color="#FFBF00"/>
<stop offset="1" stop-color="#FF8000"/>
</linearGradient>
<linearGradient id="paint2_linear_50:4050" x1="7.95488" y1="12.8568" x2="22.5837" y2="2.96497" gradientUnits="userSpaceOnUse">
<stop stop-color="#FFFF00"/>
<stop offset="1" stop-color="#FF8000"/>
</linearGradient>
<linearGradient id="paint3_linear_50:4050" x1="11.3163" y1="9.2274" x2="11.3163" y2="23.2865" gradientUnits="userSpaceOnUse">
<stop stop-color="white"/>
<stop offset="1" stop-color="#86A4AA"/>
</linearGradient>
</defs>
</svg>
