<svg width="25" height="24" viewBox="0 0 25 24" fill="none" xmlns="http://www.w3.org/2000/svg">
<path fill-rule="evenodd" clip-rule="evenodd" d="M18.1137 15.8678C13.9866 15.8014 10.4784 12.7475 10.0657 8.63132C9.65299 4.31596 13.0235 0.465342 17.4947 0.0670013H17.5634L17.3571 0.332562C15.9814 1.85953 15.2935 3.91762 15.4999 6.1085C15.8438 10.1583 19.3519 13.2786 23.5479 13.345H24.3045L23.9606 13.677C22.6537 14.9384 20.934 15.7351 18.9392 15.9342C18.664 15.8678 18.3889 15.8678 18.1137 15.8678Z" fill="url(#paint0_linear_50:4093)"/>
<path opacity="0.1725" fill-rule="evenodd" clip-rule="evenodd" d="M21.8964 13.8755C17.7692 13.8091 14.2611 10.7552 13.8483 6.639C13.642 4.18257 14.605 1.92531 16.2559 0.33195L16.531 0.13278H16.5998C16.8749 0.0663901 17.1501 0.06639 17.4252 0H17.494L17.2877 0.19917C15.9119 1.72614 15.2241 3.78423 15.4304 5.9751C15.7744 10.0249 19.2825 13.1452 23.4784 13.2116H24.2351L23.8912 13.5436L23.6848 13.7427L23.4784 13.8091C23.2721 13.8755 22.9969 13.8755 22.7218 13.8755C22.4467 13.8091 22.1715 13.8755 21.8964 13.8755Z" fill="#FFFF00"/>
<path fill-rule="evenodd" clip-rule="evenodd" d="M18.113 15.7344C18.3882 15.7344 18.6633 15.7344 18.9385 15.7344C20.6581 15.6017 22.1714 14.9378 23.4096 13.9419L23.8911 13.4772L24.0287 13.3444H23.5472C19.3512 13.278 15.7743 10.1577 15.4304 6.04149C15.224 3.85062 15.9807 1.79253 17.3564 0.19917L16.6685 0.33195C12.6789 1.06224 9.78987 4.6473 10.1338 8.6307C10.5465 12.6805 13.9859 15.668 18.113 15.7344ZM18.113 16C13.9171 15.9336 10.3402 12.8133 9.99623 8.69709C9.58351 4.31535 12.9541 0.39834 17.5627 0H17.6315L17.7003 0.19917L17.494 0.39834L16.9437 0.995851C15.9119 2.45643 15.3616 4.18257 15.5679 6.10788C15.9119 9.89212 19.0073 12.7469 22.7217 13.1452L23.4784 13.2116H24.235L24.3038 13.4108L23.9599 13.7427C22.653 15.0041 20.8645 15.8672 18.8697 16C18.6633 16 18.3882 16 18.113 16Z" fill="url(#paint1_linear_50:4093)"/>
<path opacity="0.2078" fill-rule="evenodd" clip-rule="evenodd" d="M10.0657 8.63132C9.65299 4.31596 13.0235 0.465342 17.4947 0.0670013H17.5635L17.3571 0.332562C15.9814 1.85953 15.2935 3.91762 15.4999 6.1085C13.6426 8.16659 11.8542 8.36576 10.0657 8.63132Z" fill="white"/>
<path opacity="0.4" fill-rule="evenodd" clip-rule="evenodd" d="M11.5095 5.11204C11.7159 5.17843 11.7159 5.57677 11.5783 5.90872C11.4407 6.24067 11.1656 6.50623 10.9592 6.43984C10.7529 6.37345 10.7529 5.97511 10.8904 5.64316C11.028 5.24482 11.3032 4.97926 11.5095 5.11204Z" fill="white"/>
<path opacity="0.4" fill-rule="evenodd" clip-rule="evenodd" d="M13.0917 2.52281C13.2292 2.72198 13.0229 3.45227 12.679 4.11617C12.2662 4.78007 11.8535 5.04563 11.7159 4.84646C11.5784 4.64729 11.7847 3.917 12.1287 3.2531C12.4726 2.65559 12.9541 2.32364 13.0917 2.52281Z" fill="white"/>
<path opacity="0.4627" fill-rule="evenodd" clip-rule="evenodd" d="M15.3823 16.0415C16.8444 16.1529 18.1307 15.5556 18.9361 14.6353L19.1924 14.2867L19.5061 14.3924C19.64 14.4435 19.7771 14.4539 19.9599 14.4679C21.2392 14.5653 22.3583 13.7507 22.445 12.6121C22.5255 11.5548 21.6768 10.6312 20.4981 10.4187L20.3153 10.4048L20.2696 10.4013L19.901 10.4141L19.9072 10.3328C19.7895 9.46488 18.9678 8.78876 17.9626 8.71219C17.6885 8.69131 17.4113 8.71109 17.1278 8.81221L17.0852 8.76806C16.5501 7.95017 15.5395 7.34147 14.3972 7.25446C13.1179 7.15701 11.9291 7.67998 11.3096 8.57353L11.2546 8.69204L11.2089 8.68856C11.1175 8.6816 11.0262 8.67464 10.9348 8.66768L9.44481 13.7487L9.56329 14.0031C10.0132 14.7327 10.8473 15.2462 11.8068 15.3193C12.1723 15.3471 12.4952 15.3308 12.8244 15.2332L13.1078 15.1321L13.6313 15.4991C13.9783 15.771 14.6512 15.9859 15.3823 16.0415Z" fill="#A75001" fill-opacity="0.3"/>
<path fill-rule="evenodd" clip-rule="evenodd" d="M15.6126 19C17.6107 19 19.309 17.869 20.0583 16.2668L20.5578 16.4082C20.7076 16.4553 20.9074 16.4553 21.0573 16.4553C22.5558 16.4553 23.8046 15.3243 23.8046 13.9106C23.8046 12.4968 22.5558 11.3659 21.0573 11.3659C20.8575 11.3659 20.6577 11.3659 20.5078 11.413H20.4579L19.4489 12.2989C19.1991 11.2622 19.1591 9.38663 17.9603 9.38663C17.6107 9.38663 17.311 9.43376 17.0113 9.57513L16.8614 9.62225L16.7615 9.48088C16.0122 8.49127 14.8134 7.83153 13.4148 7.83153C11.8663 7.83153 10.5177 8.63264 9.8683 9.81075L9.7684 10.0464L9.61854 9.99925C9.51864 9.99925 9.41874 9.99925 9.31884 9.99925C8.26987 9.99925 7.32081 10.5176 6.77135 11.2716V11.3187L6.6215 11.2716C6.37174 11.2245 6.12199 11.1774 5.87223 11.1774C5.02307 11.1774 5.22288 11.9785 4.77332 12.544H3.62445L3.52455 12.4968C3.42465 12.4968 3.3747 12.4968 3.2748 12.4968C2.57548 12.4968 2.02602 13.0152 2.02602 13.6278C2.02602 14.2404 2.57548 14.7588 3.2748 14.7588C3.42465 14.7588 3.62445 14.7117 3.7743 14.6646L3.82425 14.6174L3.72435 14.7117C3.92415 14.9473 4.12396 15.1829 4.37371 15.3243L4.77332 15.5128L4.87322 15.6542C5.32277 16.2668 6.07204 16.6438 6.9212 16.6438C7.27085 16.6438 7.57056 16.5967 7.87027 16.4553L7.92022 16.4082V16.4553C8.41972 17.5392 9.56859 18.2931 10.9173 18.2931C11.4667 18.2931 12.0162 18.1518 12.4657 17.9161L12.5157 17.9633C13.4148 18.623 14.4638 19 15.6126 19Z" fill="white"/>
<path fill-rule="evenodd" clip-rule="evenodd" d="M15.427 18.7245C17.4015 18.7245 19.0799 17.5938 19.8203 15.992L20.314 16.1333C20.462 16.1804 20.6595 16.1804 20.8076 16.1804C22.2885 16.1804 23.5226 15.0497 23.5226 13.6363C23.5226 12.2229 22.2885 11.0922 20.8076 11.0922C20.6101 11.0922 20.4127 11.0922 20.2646 11.1394H20.2152L20.1659 10.9509C19.9191 9.91443 18.9318 9.11351 17.7471 9.11351C17.4015 9.11351 17.1053 9.16062 16.8092 9.30196L16.6611 9.34907L16.5623 9.20774C15.8219 8.21837 14.6372 7.55879 13.255 7.55879C11.7247 7.55879 10.3919 8.35971 9.75018 9.53753L9.65145 9.77309L9.50337 9.72598C9.40464 9.72598 9.30591 9.72598 9.20718 9.72598C8.17055 9.72598 7.23265 10.2442 6.68965 10.998V11.0451L6.54156 10.998C6.29474 10.9509 6.04792 10.9038 5.80111 10.9038C4.96193 10.9038 4.22148 11.3278 3.77721 11.8932L3.57975 12.2701L3.48103 12.2229C3.3823 12.2229 3.33294 12.2229 3.23421 12.2229C2.54312 12.2229 2.00012 12.7412 2.00012 13.3537C2.00012 13.9661 2.54312 14.4844 3.23421 14.4844C3.3823 14.4844 3.57975 14.4372 3.72784 14.3901L3.77721 14.343L3.67848 14.4372C3.87593 14.6728 4.07339 14.9084 4.3202 15.0497L4.71511 15.2382L4.81384 15.3795C5.25811 15.992 5.99856 16.3689 6.83774 16.3689C7.18328 16.3689 7.47946 16.3218 7.77565 16.1804L7.82501 16.1333V16.1804C8.31864 17.264 9.454 18.0178 10.7868 18.0178C11.3298 18.0178 11.8728 17.8765 12.3171 17.6409L12.3664 17.688C13.255 18.3476 14.2916 18.7245 15.427 18.7245Z" fill="url(#paint2_linear_50:4093)"/>
<path opacity="0.1176" fill-rule="evenodd" clip-rule="evenodd" d="M20.857 10.9509L20.3633 10.9981V10.9038C20.1165 9.82024 19.0799 8.97221 17.8458 8.97221C17.5003 8.97221 17.1547 9.01933 16.8585 9.16066H16.8092L16.7598 9.11355C16.0194 8.07707 14.7853 7.4175 13.3537 7.4175C11.7741 7.4175 10.4413 8.21841 9.70083 9.44334L9.65147 9.58468H9.55274C9.45402 9.58468 9.35529 9.58468 9.2072 9.58468C8.26929 9.58468 7.38075 9.96158 6.78839 10.6212L6.59094 10.8567H6.54157C6.29476 10.7625 6.04794 10.7625 5.75176 10.7625C4.86322 10.7625 4.0734 11.1865 3.62913 11.8461L3.48104 12.0816H3.43168C3.33295 12.0816 3.23422 12.0345 3.13549 12.0345C2.44441 14.6257 22.4366 14.4844 20.857 10.9509Z" fill="white"/>
<path d="M3.40123 17.7038C3.11902 18.3193 3.01981 18.8777 3.17963 18.9509C3.33946 19.0242 3.69778 18.5847 3.97999 17.9692C4.2622 17.3537 4.66862 15.7034 4.66862 15.7034C4.66862 15.7034 3.68346 17.0883 3.40123 17.7038Z" fill="#63AFF9"/>
<path d="M11.5365 22.2681C11.1796 23.0465 11.0314 23.7421 11.2054 23.8219C11.3794 23.9017 11.8097 23.3354 12.1666 22.557C12.5234 21.7787 13.0883 19.7151 13.0883 19.7151C13.0883 19.7151 11.8934 21.4897 11.5365 22.2681Z" fill="#63AFF9"/>
<path d="M16.33 20.406C16.0872 20.9356 15.9927 21.4118 16.1191 21.4698C16.2454 21.5277 16.5446 21.1453 16.7874 20.6158C17.0302 20.0862 17.4002 18.6756 17.4002 18.6756C17.4002 18.6756 16.5728 19.8764 16.33 20.406Z" fill="#63AFF9"/>
<path d="M20.3166 18.3505C20.0811 18.864 20.0089 19.3348 20.1553 19.4019C20.3017 19.469 20.6112 19.1071 20.8467 18.5935C21.0822 18.08 21.3977 16.6922 21.3977 16.6922C21.3977 16.6922 20.5521 17.8369 20.3166 18.3505Z" fill="#63AFF9"/>
<path d="M7.39163 20.6638C7.11471 21.2678 7.02445 21.819 7.19003 21.8949C7.35562 21.9708 7.71433 21.5427 7.99125 20.9388C8.26816 20.3348 8.65111 18.7082 8.65111 18.7082C8.65111 18.7082 7.66856 20.0598 7.39163 20.6638Z" fill="#63AFF9"/>
<defs>
<linearGradient id="paint0_linear_50:4093" x1="13.3199" y1="-1.32046" x2="21.619" y2="27.8553" gradientUnits="userSpaceOnUse">
<stop stop-color="#FFF2B0"/>
<stop offset="1" stop-color="#FF8000"/>
</linearGradient>
<linearGradient id="paint1_linear_50:4093" x1="10.5829" y1="13.6618" x2="28.6202" y2="2.66994" gradientUnits="userSpaceOnUse">
<stop stop-color="#FFFF00"/>
<stop offset="1" stop-color="#FF8000"/>
</linearGradient>
<linearGradient id="paint2_linear_50:4093" x1="13.0588" y1="18.8891" x2="12.6448" y2="11.2736" gradientUnits="userSpaceOnUse">
<stop stop-color="#758A8F"/>
<stop offset="1" stop-color="#93B6BD"/>
</linearGradient>
</defs>
</svg>
