<svg width="24" height="24" viewBox="0 0 24 24" fill="none" xmlns="http://www.w3.org/2000/svg">
<path fill-rule="evenodd" clip-rule="evenodd" d="M16.3396 14.8311C18.208 14.8311 19.7961 13.7735 20.4967 12.2752L20.9638 12.4074C21.104 12.4514 21.2908 12.4514 21.4309 12.4514C22.8322 12.4514 24 11.3938 24 10.0718C24 8.74981 22.8322 7.6922 21.4309 7.6922C21.2441 7.6922 21.0573 7.6922 20.9171 7.73627H20.8704L19.9269 8.56473C19.6933 7.59526 19.656 5.84139 18.5349 5.84139C18.208 5.84139 17.9277 5.88546 17.6474 6.01766L17.5073 6.06172L17.4139 5.92952C16.7132 5.00411 15.5922 4.38718 14.2843 4.38718C12.8363 4.38718 11.5751 5.13632 10.9679 6.23799L10.8745 6.45833L10.7344 6.41426C10.6409 6.41426 10.5475 6.41426 10.4541 6.41426C9.47318 6.41426 8.58569 6.899 8.07188 7.60407V7.64814L7.93175 7.60407C7.6982 7.56 7.46465 7.51594 7.2311 7.51594C6.43703 7.51594 6.62387 8.26508 6.20348 8.79388H5.12914L5.03573 8.74981C4.94231 8.74981 4.8956 8.74981 4.80218 8.74981C4.14824 8.74981 3.63442 9.23455 3.63442 9.80742C3.63442 10.3803 4.14824 10.865 4.80218 10.865C4.94231 10.865 5.08244 10.865 5.22257 10.821C5.22257 11.2715 5.86671 11.6551 6.20348 11.5701L6.2969 11.7023C6.71729 12.2752 7.41793 12.6277 8.21201 12.6277C8.53898 12.6277 8.81924 12.5836 9.0995 12.4514C9.5666 13.465 10.6876 14.1701 11.9488 14.1701C12.4626 14.1701 12.9764 14.0379 13.3968 13.8175C14.2376 14.4345 15.2652 14.8311 16.3396 14.8311Z" fill="white"/>
<path fill-rule="evenodd" clip-rule="evenodd" d="M16.166 14.5734C18.0124 14.5734 19.5819 13.5161 20.2743 12.0182L20.7359 12.1503C20.8744 12.1944 21.059 12.1944 21.1975 12.1944C22.5823 12.1944 23.7363 11.1371 23.7363 9.81537C23.7363 8.49369 22.5823 7.43635 21.1975 7.43635C21.0128 7.43635 20.8282 7.43635 20.6897 7.4804H20.6436L20.5974 7.30418C20.3666 6.33495 19.4434 5.58599 18.3355 5.58599C18.0124 5.58599 17.7354 5.63005 17.4585 5.76222L17.32 5.80627L17.2277 5.6741C16.5352 4.74893 15.4274 4.13214 14.1349 4.13214C12.7039 4.13214 11.4576 4.88109 10.8575 5.9825L10.7651 6.20278L10.6267 6.15872C10.5343 6.15872 10.442 6.15872 10.3497 6.15872C9.38031 6.15872 8.50326 6.64334 7.99549 7.34824V7.39229L7.85701 7.34824C7.6262 7.30418 7.3954 7.26012 7.1646 7.26012C6.37986 7.26012 5.68745 7.65663 5.272 8.1853L5.08736 8.53775L4.99504 8.49369C4.90272 8.49369 4.85656 8.49369 4.76424 8.49369C4.11798 8.49369 3.61022 8.97831 3.61022 9.55104C3.61022 10.1238 4.11798 10.6084 4.76424 10.6084C4.90272 10.6084 5.17368 10.6524 5.31216 10.6084C5.31216 10.8822 5.58734 11.4454 6.24138 11.4454C6.65683 12.0182 7.34924 12.3706 8.13397 12.3706C8.4571 12.3706 8.78022 12.3266 9.05719 12.1944C9.5188 13.2077 10.5805 13.9126 11.8268 13.9126C12.3346 13.9126 12.8424 13.7804 13.2578 13.5601L13.304 13.6042C14.1349 14.221 15.1043 14.5734 16.166 14.5734Z" fill="url(#paint0_linear_50:2618)"/>
<path opacity="0.1176" fill-rule="evenodd" clip-rule="evenodd" d="M21.2436 7.3042L20.782 7.34826V7.26015C20.5512 6.24686 19.5818 5.45385 18.4278 5.45385C18.1047 5.45385 17.7815 5.49791 17.5046 5.63007H17.4584L17.4123 5.58602C16.7198 4.61678 15.5658 4 14.2272 4C12.75 4 11.5037 4.74895 10.8113 5.89441L10.7651 6.02658H10.6728C10.5805 6.02658 10.4881 6.02658 10.3497 6.02658C9.4726 6.02658 8.6417 6.37903 8.08777 6.99581L7.90313 7.21609H7.85697C7.62616 7.12798 7.39536 7.12798 7.11839 7.12798C6.2875 7.12798 5.54893 7.52449 5.13348 8.14127L4.995 8.36155H4.94884C4.85651 8.36155 4.76419 8.31749 4.67187 8.31749C4.02562 10.7406 22.7208 10.6084 21.2436 7.3042Z" fill="white"/>
<path opacity="0.45" fill-rule="evenodd" clip-rule="evenodd" d="M12.3459 16.5647C13.9121 16.684 15.2835 16.128 16.1372 15.2607L16.4084 14.9317L16.7451 15.0351C16.889 15.0849 17.0358 15.0961 17.2316 15.111C18.602 15.2154 19.7924 14.4514 19.8748 13.3699C19.9513 12.3656 19.0342 11.4799 17.7705 11.2671L17.5748 11.2522L17.5258 11.2485L17.1313 11.2573L17.1372 11.18C17.0032 10.354 16.1175 9.7038 15.0407 9.62179C14.7471 9.59942 14.4505 9.61567 14.148 9.70918L14.102 9.66683C13.5216 8.88449 12.4342 8.29662 11.2106 8.20342C9.84025 8.09903 8.77811 8.55505 8.12313 9.39868L7.20917 10.7851L7.22054 10.7526C7.31843 10.76 7.12266 10.7451 7.22054 10.7526L5.96893 14.3308L6.09811 14.5737C6.58646 15.2713 7.484 15.767 8.51179 15.8453C8.90334 15.8751 9.24888 15.8626 9.6003 15.7728L9.90278 15.6793L10.4666 16.0331C10.8404 16.2946 11.5628 16.5051 12.3459 16.5647Z" fill="#5B6A6F"/>
<path fill-rule="evenodd" clip-rule="evenodd" d="M12.7293 19.344C14.5977 19.344 16.1859 18.2864 16.8865 16.7881L17.3536 16.9203C17.4937 16.9644 17.6806 16.9644 17.8207 16.9644C19.222 16.9644 20.3898 15.9068 20.3898 14.5848C20.3898 13.2628 19.222 12.2052 17.8207 12.2052C17.6339 12.2052 17.447 12.2052 17.3069 12.2492H17.2602L16.3167 13.0777C16.0831 12.1082 16.0457 10.3543 14.9247 10.3543C14.5977 10.3543 14.3175 10.3984 14.0372 10.5306L13.8971 10.5747L13.8037 10.4425C13.103 9.51707 11.982 8.90013 10.6741 8.90013C9.22607 8.90013 7.9649 9.64927 7.35767 10.7509L7.26425 10.9713L7.12412 10.9272C7.0307 10.9272 6.93728 10.9272 6.84386 10.9272C5.86295 10.9272 4.97546 11.412 4.46165 12.117V12.1611L4.32152 12.117C4.08797 12.073 3.85442 12.0289 3.62087 12.0289C2.8268 12.0289 3.01364 12.778 2.59325 13.3068H1.51892L1.4255 13.2628C1.33208 13.2628 1.28537 13.2628 1.19195 13.2628C0.538006 13.2628 0.0241947 13.7475 0.0241947 14.3204C0.0241947 14.8932 0.538006 15.378 1.19195 15.378C1.33208 15.378 1.47221 15.378 1.61234 15.3339C1.61234 15.7844 2.25648 16.1681 2.59325 16.0831L2.68667 16.2153C3.10706 16.7881 3.8077 17.1407 4.60178 17.1407C4.92875 17.1407 5.20901 17.0966 5.48927 16.9644C5.95637 17.9779 7.07741 18.683 8.33858 18.683C8.85239 18.683 9.3662 18.5508 9.78659 18.3305C10.6274 18.9474 11.655 19.344 12.7293 19.344Z" fill="white"/>
<path fill-rule="evenodd" clip-rule="evenodd" d="M12.5557 19.0864C14.4022 19.0864 15.9716 18.029 16.664 16.5311L17.1256 16.6633C17.2641 16.7074 17.4488 16.7074 17.5873 16.7074C18.9721 16.7074 20.1261 15.65 20.1261 14.3283C20.1261 13.0066 18.9721 11.9493 17.5873 11.9493C17.4026 11.9493 17.218 11.9493 17.0795 11.9934H17.0333L16.9872 11.8171C16.7564 10.8479 15.8331 10.0989 14.7253 10.0989C14.4022 10.0989 14.1252 10.143 13.8482 10.2752L13.7097 10.3192L13.6174 10.1871C12.925 9.26188 11.8172 8.6451 10.5246 8.6451C9.09366 8.6451 7.84732 9.39405 7.24723 10.4955L7.15491 10.7157L7.01643 10.6717C6.92411 10.6717 6.83178 10.6717 6.73946 10.6717C5.77009 10.6717 4.89303 11.1563 4.38526 11.8612V11.9052L4.24678 11.8612C4.01597 11.8171 3.78517 11.7731 3.55437 11.7731C2.76963 11.7731 2.07722 12.1696 1.66177 12.6983L1.47713 13.0507L1.38481 13.0066C1.29249 13.0066 1.24633 13.0066 1.15401 13.0066C0.507755 13.0066 -1.33514e-05 13.4913 -1.33514e-05 14.064C-1.33514e-05 14.6367 0.507755 15.1213 1.15401 15.1213C1.29249 15.1213 1.56345 15.1654 1.70193 15.1213C1.70193 15.3951 1.97711 15.9584 2.63115 15.9584C3.0466 16.5311 3.73901 16.8836 4.52374 16.8836C4.84687 16.8836 5.17 16.8395 5.44696 16.7074C5.90857 17.7206 6.97027 18.4255 8.21661 18.4255C8.72438 18.4255 9.23215 18.2934 9.64759 18.0731L9.69375 18.1172C10.5246 18.7339 11.494 19.0864 12.5557 19.0864Z" fill="url(#paint1_linear_50:2618)"/>
<path opacity="0.1176" fill-rule="evenodd" clip-rule="evenodd" d="M17.6334 11.8172L17.1718 11.8612V11.7731C16.941 10.7598 15.9716 9.9668 14.8176 9.9668C14.4944 9.9668 14.1713 10.0109 13.8943 10.143H13.8482L13.802 10.099C13.1096 9.12974 11.9556 8.51295 10.6169 8.51295C9.13978 8.51295 7.89344 9.26191 7.20103 10.4074L7.15487 10.5395H7.06255C6.97023 10.5395 6.8779 10.5395 6.73942 10.5395C5.86237 10.5395 5.03147 10.892 4.47754 11.5088L4.2929 11.729H4.24674C4.01593 11.6409 3.78513 11.6409 3.50816 11.6409C2.67727 11.6409 1.9387 12.0374 1.52325 12.6542L1.38477 12.8745H1.33861C1.24628 12.8745 1.15396 12.8304 1.06164 12.8304C0.41539 15.2535 19.1105 15.1214 17.6334 11.8172Z" fill="white"/>
<path fill-rule="evenodd" clip-rule="evenodd" d="M11.8874 5.62199L9.47985 11.397L11.3607 11.622L9.55509 14.847L11.2103 14.772L8.57703 20.097L14.5206 14.847L12.5645 14.697L14.5959 11.622H13.4673L17.7557 5.84699L12.1883 5.62199H11.8874Z" fill="url(#paint2_linear_50:2618)"/>
<path fill-rule="evenodd" clip-rule="evenodd" d="M9.0284 19.497L14.1444 14.997L12.5645 14.847L12.4892 14.622L14.3701 11.772H13.4673L13.3168 11.472L17.3795 5.922L12.1883 5.772H11.9626L9.70552 11.247L11.3607 11.397L11.5112 11.622L9.85599 14.697L11.2855 14.622L11.4359 14.847L9.0284 19.497ZM8.65222 20.172L8.42651 20.022L10.9845 14.922L9.55505 14.997L9.40457 14.772L11.0598 11.697L9.40457 11.547L9.2541 11.322L11.7031 5.472L12.1883 5.31914L17.8398 5.472L18 5.772L13.7682 11.472H14.5958L14.7463 11.697L12.8654 14.622L14.5958 14.772L14.6711 14.997L8.65222 20.172Z" fill="#FFBF00"/>
<path opacity="0.4471" fill-rule="evenodd" clip-rule="evenodd" d="M12 5.672L10.5 9.172C11.5 9.672 12.5 10.172 15 9.172L17.5 5.672H12Z" fill="white"/>
<defs>
<linearGradient id="paint0_linear_50:2618" x1="13.9515" y1="14.7273" x2="13.5642" y2="7.60595" gradientUnits="userSpaceOnUse">
<stop stop-color="#6B868D"/>
<stop offset="1" stop-color="#86A4AA"/>
</linearGradient>
<linearGradient id="paint1_linear_50:2618" x1="10.3412" y1="19.2403" x2="9.95401" y2="12.1189" gradientUnits="userSpaceOnUse">
<stop stop-color="#6B868D"/>
<stop offset="1" stop-color="#86A4AA"/>
</linearGradient>
<linearGradient id="paint2_linear_50:2618" x1="8.47419" y1="22.3696" x2="14.8381" y2="5.61205" gradientUnits="userSpaceOnUse">
<stop stop-color="#FFFF00"/>
<stop offset="1" stop-color="#FFBF00"/>
</linearGradient>
</defs>
</svg>
