<svg width="24" height="24" viewBox="0 0 24 24" fill="none" xmlns="http://www.w3.org/2000/svg">
<path fill-rule="evenodd" clip-rule="evenodd" d="M16.3652 14.3707C18.1542 14.3707 19.6748 13.3581 20.3457 11.9235L20.793 12.05C20.9271 12.0922 21.106 12.0922 21.2402 12.0922C22.582 12.0922 23.7001 11.0796 23.7001 9.81375C23.7001 8.54793 22.582 7.53527 21.2402 7.53527C21.0613 7.53527 20.8824 7.53527 20.7482 7.57746H20.7035L19.8001 8.37071C19.5764 7.44244 19.5407 5.76312 18.4673 5.76312C18.1542 5.76312 17.8859 5.80531 17.6175 5.93189L17.4833 5.97409L17.3939 5.84751C16.723 4.96143 15.6496 4.37071 14.3973 4.37071C13.0109 4.37071 11.8033 5.08801 11.2219 6.14286L11.1324 6.35384L10.9982 6.31164C10.9088 6.31164 10.8193 6.31164 10.7299 6.31164C9.79067 6.31164 8.9409 6.77578 8.44893 7.45088V7.49308L8.31475 7.45088C8.09113 7.40869 7.8675 7.36649 7.64388 7.36649C6.88356 7.36649 7.06246 8.08379 6.65993 8.59012H5.63126L5.54181 8.54793C5.45237 8.54793 5.40764 8.54793 5.31819 8.54793C4.69205 8.54793 4.20007 9.01206 4.20007 9.56059C4.20007 10.1091 4.69205 10.5732 5.31819 10.5732C5.45237 10.5732 5.63127 10.5311 5.76544 10.4889L5.81016 10.4467L5.72071 10.5311C5.89961 10.742 6.07851 10.953 6.30214 11.0796L6.65993 11.2484L6.74938 11.3749C7.15191 11.9235 7.82278 12.261 8.5831 12.261C8.89617 12.261 9.16452 12.2188 9.43287 12.0922L9.47759 12.05V12.0922C9.92484 13.0627 10.9535 13.7378 12.1611 13.7378C12.6531 13.7378 13.145 13.6112 13.5476 13.4002L13.5923 13.4424C14.3973 14.0332 15.3365 14.3707 16.3652 14.3707Z" fill="white"/>
<path fill-rule="evenodd" clip-rule="evenodd" d="M16.199 14.124C17.967 14.124 19.4697 13.1116 20.1327 11.6774L20.5747 11.8039C20.7073 11.8461 20.8841 11.8461 21.0167 11.8461C22.3427 11.8461 23.4476 10.8337 23.4476 9.56821C23.4476 8.3027 22.3427 7.2903 21.0167 7.2903C20.8399 7.2903 20.6631 7.2903 20.5305 7.33248H20.4863L20.4421 7.16375C20.2211 6.23571 19.3371 5.51858 18.2764 5.51858C17.967 5.51858 17.7018 5.56077 17.4366 5.68732L17.304 5.7295L17.2156 5.60295C16.5526 4.7171 15.4918 4.12653 14.2543 4.12653C12.8841 4.12653 11.6907 4.84365 11.1161 5.89824L11.0277 6.10916L10.8951 6.06697C10.8068 6.06697 10.7184 6.06697 10.63 6.06697C9.70178 6.06697 8.862 6.53099 8.37581 7.20593V7.24811L8.24321 7.20593C8.02222 7.16375 7.80123 7.12156 7.58023 7.12156C6.82885 7.12156 6.16587 7.50121 5.76808 8.00742L5.59128 8.34489L5.50289 8.3027C5.41449 8.3027 5.37029 8.3027 5.28189 8.3027C4.66311 8.3027 4.17692 8.76672 4.17692 9.31511C4.17692 9.8635 4.66311 10.3275 5.28189 10.3275C5.41449 10.3275 5.59128 10.2853 5.72388 10.2431L5.76808 10.201L5.67968 10.2853C5.85648 10.4963 6.03327 10.7072 6.25426 10.8337L6.60786 11.0025L6.69625 11.129C7.09404 11.6774 7.75703 12.0149 8.50841 12.0149C8.8178 12.0149 9.08299 11.9727 9.34819 11.8461L9.39239 11.8039V11.8461C9.83437 12.8163 10.8509 13.4913 12.0443 13.4913C12.5305 13.4913 13.0167 13.3647 13.4145 13.1538L13.4587 13.196C14.2543 13.7866 15.1824 14.124 16.199 14.124Z" fill="url(#paint0_linear_50:3852)"/>
<path opacity="0.1176" fill-rule="evenodd" clip-rule="evenodd" d="M21.0609 7.16377L20.6189 7.20595V7.12159C20.3979 6.15136 19.4697 5.39206 18.3647 5.39206C18.0553 5.39206 17.7459 5.43424 17.4808 5.56079H17.4366L17.3924 5.51861C16.7294 4.59057 15.6244 4 14.3426 4C12.9283 4 11.7349 4.71712 11.0719 5.81389L11.0277 5.94045H10.9393C10.8509 5.94045 10.7625 5.94045 10.6299 5.94045C9.79014 5.94045 8.99456 6.27791 8.46418 6.86848L8.28738 7.0794H8.24318C8.02219 6.99503 7.80119 6.99504 7.536 6.99504C6.74042 6.99504 6.03324 7.37469 5.63545 7.96526L5.50285 8.17618H5.45865C5.37025 8.17618 5.28186 8.13399 5.19346 8.13399C4.57467 10.4541 22.4752 10.3275 21.0609 7.16377Z" fill="white"/>
<path opacity="0.4627" fill-rule="evenodd" clip-rule="evenodd" d="M13.083 15.9851C14.4973 15.9851 15.6907 15.268 16.3979 14.2556L16.6189 13.8759L16.9283 13.9603C17.0609 14.0025 17.1935 14.0025 17.3702 14.0025C18.6078 14.0025 19.6244 13.0744 19.6244 11.8933C19.6244 10.7965 18.7404 9.91067 17.5912 9.78412H17.4144H17.3702L17.0167 9.8263V9.74193C16.8399 8.85608 16.0001 8.22332 15.0277 8.22332C14.7625 8.22332 14.4973 8.26551 14.2321 8.39206L14.1879 8.34988C13.6133 7.54839 12.5968 7 11.4918 7C10.2542 7 9.14925 7.63275 8.61887 8.60298L8.57467 8.72953H8.53047C8.44207 8.72953 8.35367 8.72953 8.26528 8.72953L7.2045 14.0868L7.3371 14.3399C7.82329 15.0571 8.66306 15.5211 9.59124 15.5211C9.94483 15.5211 10.2542 15.4789 10.5636 15.3524L10.8288 15.2258L11.3592 15.5633C11.7128 15.8164 12.3758 15.9851 13.083 15.9851Z" fill="#93B3C1"/>
<path fill-rule="evenodd" clip-rule="evenodd" d="M12.3652 17.3707C14.1542 17.3707 15.6748 16.3581 16.3457 14.9235L16.793 15.05C16.9271 15.0922 17.106 15.0922 17.2402 15.0922C18.582 15.0922 19.7001 14.0796 19.7001 12.8138C19.7001 11.5479 18.582 10.5353 17.2402 10.5353C17.0613 10.5353 16.8824 10.5353 16.7482 10.5775H16.7035L15.8001 11.3707C15.5764 10.4424 15.5407 8.76312 14.4673 8.76312C14.1542 8.76312 13.8859 8.80531 13.6175 8.93189L13.4833 8.97409L13.3939 8.84751C12.723 7.96143 11.6496 7.37071 10.3973 7.37071C9.01085 7.37071 7.80328 8.08801 7.22186 9.14286L7.13241 9.35384L6.99824 9.31164C6.90879 9.31164 6.81934 9.31164 6.72989 9.31164C5.79067 9.31164 4.9409 9.77578 4.44893 10.4509V10.4931L4.31475 10.4509C4.09113 10.4087 3.8675 10.3665 3.64388 10.3665C2.88356 10.3665 3.06246 11.0838 2.65993 11.5901H1.63126L1.54181 11.5479C1.45237 11.5479 1.40764 11.5479 1.31819 11.5479C0.692045 11.5479 0.200073 12.0121 0.200073 12.5606C0.200073 13.1091 0.692045 13.5732 1.31819 13.5732C1.45237 13.5732 1.63127 13.5311 1.76544 13.4889L1.81016 13.4467L1.72071 13.5311C1.89961 13.742 2.07851 13.953 2.30214 14.0796L2.65993 14.2484L2.74938 14.3749C3.15191 14.9235 3.82278 15.261 4.5831 15.261C4.89617 15.261 5.16452 15.2188 5.43287 15.0922L5.47759 15.05V15.0922C5.92484 16.0627 6.95351 16.7378 8.16108 16.7378C8.65305 16.7378 9.14503 16.6112 9.54755 16.4002L9.59227 16.4424C10.3973 17.0332 11.3365 17.3707 12.3652 17.3707Z" fill="white"/>
<path fill-rule="evenodd" clip-rule="evenodd" d="M12.199 17.124C13.967 17.124 15.4697 16.1116 16.1327 14.6774L16.5747 14.8039C16.7073 14.8461 16.8841 14.8461 17.0167 14.8461C18.3427 14.8461 19.4476 13.8337 19.4476 12.5682C19.4476 11.3027 18.3427 10.2903 17.0167 10.2903C16.8399 10.2903 16.6631 10.2903 16.5305 10.3325H16.4863L16.4421 10.1637C16.2211 9.23571 15.3371 8.51858 14.2764 8.51858C13.967 8.51858 13.7018 8.56077 13.4366 8.68732L13.304 8.7295L13.2156 8.60295C12.5526 7.7171 11.4918 7.12653 10.2543 7.12653C8.8841 7.12653 7.69073 7.84365 7.11614 8.89824L7.02775 9.10916L6.89515 9.06697C6.80675 9.06697 6.71835 9.06697 6.62995 9.06697C5.70178 9.06697 4.862 9.53099 4.37581 10.2059V10.2481L4.24321 10.2059C4.02222 10.1637 3.80123 10.1216 3.58023 10.1216C2.82885 10.1216 2.16587 10.5012 1.76808 11.0074L1.59128 11.3449L1.50289 11.3027C1.41449 11.3027 1.37029 11.3027 1.28189 11.3027C0.663107 11.3027 0.176918 11.7667 0.176918 12.3151C0.176918 12.8635 0.663107 13.3275 1.28189 13.3275C1.41449 13.3275 1.59128 13.2853 1.72388 13.2431L1.76808 13.201L1.67968 13.2853C1.85648 13.4963 2.03327 13.7072 2.25426 13.8337L2.60786 14.0025L2.69625 14.129C3.09404 14.6774 3.75703 15.0149 4.50841 15.0149C4.8178 15.0149 5.08299 14.9727 5.34819 14.8461L5.39239 14.8039V14.8461C5.83437 15.8163 6.85095 16.4913 8.04432 16.4913C8.53051 16.4913 9.0167 16.3647 9.41448 16.1538L9.45868 16.196C10.2543 16.7866 11.1824 17.124 12.199 17.124Z" fill="url(#paint1_linear_50:3852)"/>
<path opacity="0.1176" fill-rule="evenodd" clip-rule="evenodd" d="M17.0609 10.1638L16.6189 10.206V10.1216C16.3979 9.15136 15.4697 8.39206 14.3647 8.39206C14.0553 8.39206 13.7459 8.43424 13.4808 8.56079H13.4366L13.3924 8.51861C12.7294 7.59057 11.6244 7 10.3426 7C8.92826 7 7.73489 7.71712 7.07191 8.81389L7.02771 8.94045H6.93931C6.85092 8.94045 6.76252 8.94045 6.62992 8.94045C5.79014 8.94045 4.99456 9.27791 4.46418 9.86848L4.28738 10.0794H4.24318C4.02219 9.99503 3.80119 9.99504 3.536 9.99504C2.74042 9.99504 2.03324 10.3747 1.63545 10.9653L1.50285 11.1762H1.45865C1.37025 11.1762 1.28186 11.134 1.19346 11.134C0.574675 13.4541 18.4752 13.3275 17.0609 10.1638Z" fill="white"/>
<path fill-rule="evenodd" clip-rule="evenodd" d="M2.06707 16.0631L2.07365 16.01L2.02096 15.99L2.06707 15.9635L2.06048 15.9103L2.10659 15.9435L2.14611 15.9103L2.13952 15.9635L2.19222 15.9834L2.14611 16.01L2.15269 16.0631L2.10659 16.0299L2.06707 16.0631ZM2.09341 16.3156C2.13952 16.3156 2.17904 16.309 2.21198 16.289L2.1 16.0897L2.10659 16.0831L2.20539 16.1495V16.1163L2.28443 16.2492L2.31737 16.2226C2.35689 16.1827 2.38982 16.1296 2.40299 16.0631L2.40958 16.01L2.20539 16.0299L2.31078 15.9767L2.24491 15.9502L2.40958 15.9369L2.38982 15.8837C2.37665 15.8439 2.3503 15.8106 2.32395 15.7841L2.2976 15.7575L2.20539 15.9169L2.21198 15.8106L2.14611 15.8638L2.23174 15.7176H2.22515C2.18563 15.7043 2.14611 15.691 2.10659 15.691C2.08683 15.691 2.06707 15.691 2.04731 15.6977L1.99461 15.711L2.08024 15.8571L2.02096 15.8173L2.03413 15.9369L1.92874 15.7508L1.9024 15.7708C1.8497 15.8239 1.81018 15.8904 1.80359 15.9701V15.9834L1.97485 15.9701L1.92874 15.99L2.04072 16.0365V16.0432L1.79042 16.0631V16.0698C1.80359 16.1429 1.84311 16.2027 1.89581 16.2492L1.9024 16.2558L2.02096 16.0565L2.01437 16.1694L2.07365 16.1229L1.96826 16.2957L1.98144 16.3023C2.02096 16.309 2.05389 16.3156 2.09341 16.3156ZM2.52156 17L2.4491 16.9734L2.51497 16.8206L2.45569 16.7209L2.38323 16.8937L2.31078 16.8605L2.40299 16.6346L2.34371 16.5282L2.23174 16.8007L2.15928 16.7674L2.2976 16.4419L2.25808 16.3688L2.24491 16.3754C2.1988 16.3953 2.14611 16.4086 2.08683 16.4086C2.04072 16.4086 1.99461 16.402 1.9485 16.3821L1.92216 16.3688L1.88263 16.4352L2.02096 16.7608L1.95509 16.794L1.83653 16.5216L1.78383 16.6146L1.88922 16.8605L1.81677 16.8937L1.73114 16.701L1.65868 16.8206L1.71796 16.9601L1.6521 16.9934L1.61257 16.9003L1.56647 16.9801L1.5006 16.9402L1.55329 16.8538L1.4479 16.8671L1.44132 16.794L1.60599 16.7741L1.66527 16.6744L1.48084 16.6944L1.47425 16.6213L1.71138 16.588L1.77066 16.4817L1.48084 16.5216L1.46766 16.4485L1.81677 16.402L1.85629 16.3355L1.83653 16.3223C1.76407 16.2625 1.71796 16.1827 1.6982 16.0897V16.0764L1.61916 16.0831L1.44132 16.3887L1.37545 16.3488L1.52695 16.0897L1.42156 16.0963L1.28323 16.3156L1.21737 16.2757L1.32934 16.0963L1.19102 16.1096L1.11198 16.2425L1.04611 16.2027L1.0988 16.1163L1.00659 16.1229L1 16.0498L1.0988 16.0432L1.01976 15.9635L1.07246 15.9103L1.18443 16.0365L1.29641 16.0299L1.17784 15.8904L1.23713 15.8372L1.4018 16.0166L1.52036 16.01L1.32275 15.7907L1.37545 15.7375L1.61257 16.0033L1.69162 15.9967V15.9635C1.6982 15.8638 1.7509 15.7708 1.82335 15.7043L1.86946 15.6711L1.82994 15.598L1.48084 15.5581L1.48743 15.4784L1.78383 15.5116L1.73114 15.4186L1.46766 15.392L1.47425 15.3189L1.68503 15.3389L1.61257 15.2126L1.46108 15.1993L1.46766 15.1262L1.56647 15.1329L1.52036 15.0532L1.58623 15.0133L1.63234 15.0997L1.67844 15L1.7509 15.0266L1.68503 15.1794L1.74431 15.2857L1.81018 15.113L1.88263 15.1395L1.79042 15.3654L1.8497 15.4718L1.96168 15.1993L2.02754 15.2259L1.89581 15.5515L1.93533 15.6246L1.9485 15.6179C1.99461 15.6047 2.04072 15.598 2.09341 15.598C2.14611 15.598 2.1988 15.6113 2.2515 15.6312L2.27126 15.6379L2.31737 15.5581L2.17246 15.2326L2.23832 15.1993L2.35689 15.4718L2.40958 15.3787L2.30419 15.1329L2.37665 15.0997L2.46228 15.2924L2.53473 15.1728L2.46886 15.0465L2.54132 15.0133L2.58084 15.1063L2.62695 15.0266L2.69281 15.0664L2.64012 15.1528L2.74551 15.1329L2.7521 15.206L2.58743 15.2259L2.53473 15.3322L2.71257 15.3123L2.71916 15.3854L2.48204 15.4186L2.42275 15.5249L2.71257 15.485L2.71916 15.5581L2.37665 15.598L2.33054 15.6711L2.37665 15.711C2.42934 15.7641 2.46886 15.8372 2.48862 15.9169V15.9236L2.57425 15.9169L2.7521 15.6113L2.81796 15.6512L2.66647 15.9169L2.77186 15.9103L2.91018 15.6844L2.97605 15.7243L2.87066 15.9037L3.00898 15.8904L3.08802 15.7575L3.15389 15.7973L3.1012 15.8837L3.19341 15.8771L3.2 15.9502L3.1012 15.9568L3.17365 16.0365L3.12096 16.0897L3.00898 15.9701L2.89042 15.9767L3.01557 16.1163L2.96287 16.1694L2.7982 15.9834L2.67964 15.99L2.87725 16.2093L2.81796 16.2625L2.58084 15.9967L2.49521 16.0033L2.48862 16.0831C2.47545 16.1628 2.43593 16.2359 2.37665 16.289L2.32395 16.3289L2.36347 16.402L2.71257 16.4419L2.70599 16.515L2.40958 16.4817L2.46228 16.5748L2.72575 16.6013L2.71916 16.6744L2.51497 16.6611L2.58084 16.7807L2.73234 16.794L2.72575 16.8671L2.62695 16.8538L2.67305 16.9336L2.60719 16.9734L2.56108 16.887L2.52156 17Z" fill="#4FA4C9"/>
<path fill-rule="evenodd" clip-rule="evenodd" d="M3.48503 19.5316L3.48802 19.505L3.46407 19.495L3.48503 19.4817L3.48204 19.4551L3.50299 19.4718L3.52096 19.4551L3.51796 19.4817L3.54192 19.4917L3.52096 19.505L3.52395 19.5316L3.50299 19.515L3.48503 19.5316ZM3.49701 19.6578C3.51796 19.6578 3.53593 19.6545 3.5509 19.6445L3.5 19.5449L3.50299 19.5415L3.5479 19.5748V19.5581L3.58383 19.6246L3.5988 19.6113C3.61677 19.5914 3.63174 19.5648 3.63772 19.5316L3.64072 19.505L3.5479 19.515L3.59581 19.4884L3.56587 19.4751L3.64072 19.4684L3.63174 19.4419C3.62575 19.4219 3.61377 19.4053 3.6018 19.392L3.58982 19.3787L3.5479 19.4585L3.5509 19.4053L3.52096 19.4319L3.55988 19.3588H3.55689C3.53892 19.3522 3.52096 19.3455 3.50299 19.3455C3.49401 19.3455 3.48503 19.3455 3.47605 19.3488L3.4521 19.3555L3.49102 19.4286L3.46407 19.4086L3.47006 19.4684L3.42216 19.3754L3.41018 19.3854C3.38623 19.412 3.36826 19.4452 3.36527 19.485V19.4917L3.44311 19.485L3.42216 19.495L3.47305 19.5183V19.5216L3.35928 19.5316V19.5349C3.36527 19.5714 3.38323 19.6013 3.40719 19.6246L3.41018 19.6279L3.46407 19.5282L3.46108 19.5847L3.48802 19.5615L3.44012 19.6478L3.44611 19.6512C3.46407 19.6545 3.47904 19.6578 3.49701 19.6578ZM3.69162 20L3.65868 19.9867L3.68862 19.9103L3.66168 19.8605L3.62874 19.9468L3.59581 19.9302L3.63772 19.8173L3.61078 19.7641L3.55988 19.9003L3.52695 19.8837L3.58982 19.7209L3.57186 19.6844L3.56587 19.6877C3.54491 19.6977 3.52096 19.7043 3.49401 19.7043C3.47305 19.7043 3.4521 19.701 3.43114 19.691L3.41916 19.6844L3.4012 19.7176L3.46407 19.8804L3.43413 19.897L3.38024 19.7608L3.35629 19.8073L3.40419 19.9302L3.37126 19.9468L3.33234 19.8505L3.2994 19.9103L3.32635 19.9801L3.29641 19.9967L3.27844 19.9502L3.25749 19.99L3.22754 19.9701L3.2515 19.9269L3.20359 19.9336L3.2006 19.897L3.27545 19.887L3.3024 19.8372L3.21856 19.8472L3.21557 19.8106L3.32335 19.794L3.3503 19.7409L3.21856 19.7608L3.21257 19.7243L3.37126 19.701L3.38922 19.6678L3.38024 19.6611C3.34731 19.6312 3.32635 19.5914 3.31737 19.5449V19.5382L3.28144 19.5415L3.2006 19.6944L3.17066 19.6744L3.23952 19.5449L3.19162 19.5482L3.12874 19.6578L3.0988 19.6379L3.1497 19.5482L3.08683 19.5548L3.0509 19.6213L3.02096 19.6013L3.04491 19.5581L3.00299 19.5615L3 19.5249L3.04491 19.5216L3.00898 19.4817L3.03293 19.4551L3.08383 19.5183L3.13473 19.515L3.08084 19.4452L3.10778 19.4186L3.18263 19.5083L3.23653 19.505L3.14671 19.3953L3.17066 19.3688L3.27844 19.5017L3.31437 19.4983V19.4817C3.31737 19.4319 3.34132 19.3854 3.37425 19.3522L3.39521 19.3355L3.37725 19.299L3.21856 19.2791L3.22156 19.2392L3.35629 19.2558L3.33234 19.2093L3.21257 19.196L3.21557 19.1595L3.31138 19.1694L3.27844 19.1063L3.20958 19.0997L3.21257 19.0631L3.25749 19.0664L3.23653 19.0266L3.26647 19.0066L3.28743 19.0498L3.30838 19L3.34132 19.0133L3.31138 19.0897L3.33832 19.1429L3.36826 19.0565L3.4012 19.0698L3.35928 19.1827L3.38623 19.2359L3.43713 19.0997L3.46707 19.113L3.40719 19.2757L3.42515 19.3123L3.43114 19.309C3.4521 19.3023 3.47305 19.299 3.49701 19.299C3.52096 19.299 3.54491 19.3056 3.56886 19.3156L3.57784 19.3189L3.5988 19.2791L3.53293 19.1163L3.56287 19.0997L3.61677 19.2359L3.64072 19.1894L3.59281 19.0664L3.62575 19.0498L3.66467 19.1462L3.6976 19.0864L3.66766 19.0233L3.7006 19.0066L3.71856 19.0532L3.73952 19.0133L3.76946 19.0332L3.74551 19.0764L3.79341 19.0664L3.79641 19.103L3.72156 19.113L3.6976 19.1661L3.77844 19.1561L3.78144 19.1927L3.67365 19.2093L3.64671 19.2625L3.77844 19.2425L3.78144 19.2791L3.62575 19.299L3.60479 19.3355L3.62575 19.3555C3.6497 19.3821 3.66766 19.4186 3.67665 19.4585V19.4618L3.71557 19.4585L3.79641 19.3056L3.82635 19.3256L3.75749 19.4585L3.80539 19.4551L3.86826 19.3422L3.8982 19.3621L3.8503 19.4518L3.91317 19.4452L3.9491 19.3787L3.97904 19.3987L3.95509 19.4419L3.99701 19.4385L4 19.4751L3.95509 19.4784L3.98802 19.5183L3.96407 19.5449L3.91317 19.485L3.85928 19.4884L3.91617 19.5581L3.89222 19.5847L3.81737 19.4917L3.76347 19.495L3.85329 19.6047L3.82635 19.6312L3.71856 19.4983L3.67964 19.5017L3.67665 19.5415C3.67066 19.5814 3.65269 19.6179 3.62575 19.6445L3.6018 19.6645L3.61976 19.701L3.77844 19.7209L3.77545 19.7575L3.64072 19.7409L3.66467 19.7874L3.78443 19.8007L3.78144 19.8372L3.68862 19.8306L3.71856 19.8904L3.78743 19.897L3.78443 19.9336L3.73952 19.9269L3.76048 19.9668L3.73054 19.9867L3.70958 19.9435L3.69162 20Z" fill="#4FA4C9"/>
<path fill-rule="evenodd" clip-rule="evenodd" d="M9.45509 19.5947L9.46407 19.515L9.39222 19.485L9.45509 19.4452L9.44611 19.3654L9.50898 19.4153L9.56287 19.3654L9.55389 19.4452L9.62575 19.4751L9.56287 19.515L9.57186 19.5947L9.50898 19.5449L9.45509 19.5947ZM9.49102 19.9734C9.55389 19.9734 9.60778 19.9635 9.65269 19.9336L9.5 19.6346L9.50898 19.6246L9.64371 19.7243V19.6744L9.7515 19.8738L9.79641 19.8339C9.8503 19.7741 9.89521 19.6944 9.91317 19.5947L9.92216 19.515L9.64371 19.5449L9.78743 19.4651L9.6976 19.4252L9.92216 19.4053L9.89521 19.3256C9.87725 19.2658 9.84132 19.2159 9.80539 19.1761L9.76946 19.1362L9.64371 19.3754L9.65269 19.2159L9.56287 19.2957L9.67964 19.0764H9.67066C9.61677 19.0565 9.56287 19.0365 9.50898 19.0365C9.48204 19.0365 9.45509 19.0365 9.42814 19.0465L9.35629 19.0664L9.47305 19.2857L9.39222 19.2259L9.41018 19.4053L9.26647 19.1262L9.23054 19.1561C9.15868 19.2359 9.10479 19.3355 9.09581 19.4551V19.4751L9.32934 19.4551L9.26647 19.485L9.41916 19.5548V19.5648L9.07784 19.5947V19.6047C9.09581 19.7143 9.1497 19.804 9.22156 19.8738L9.23054 19.8837L9.39222 19.5847L9.38323 19.7542L9.46407 19.6844L9.32036 19.9435L9.33832 19.9535C9.39222 19.9635 9.43713 19.9734 9.49102 19.9734ZM10.0749 21L9.97605 20.9601L10.0659 20.7309L9.98503 20.5814L9.88623 20.8405L9.78743 20.7907L9.91317 20.4518L9.83234 20.2924L9.67964 20.701L9.58084 20.6512L9.76946 20.1628L9.71557 20.0532L9.6976 20.0631C9.63473 20.093 9.56287 20.113 9.48204 20.113C9.41916 20.113 9.35629 20.103 9.29341 20.0731L9.25749 20.0532L9.20359 20.1528L9.39222 20.6412L9.3024 20.691L9.14072 20.2824L9.06886 20.4219L9.21257 20.7907L9.11377 20.8405L8.99701 20.5515L8.8982 20.7309L8.97904 20.9402L8.88922 20.99L8.83533 20.8505L8.77246 20.9701L8.68263 20.9103L8.75449 20.7807L8.61078 20.8007L8.6018 20.691L8.82635 20.6611L8.90719 20.5116L8.65569 20.5415L8.64671 20.4319L8.97006 20.3821L9.0509 20.2226L8.65569 20.2824L8.63772 20.1728L9.11377 20.103L9.16766 20.0033L9.14072 19.9834C9.04192 19.8937 8.97904 19.7741 8.9521 19.6346V19.6146L8.84431 19.6246L8.6018 20.0831L8.51198 20.0233L8.71856 19.6346L8.57485 19.6445L8.38623 19.9734L8.29641 19.9136L8.4491 19.6445L8.26048 19.6645L8.15269 19.8638L8.06287 19.804L8.13473 19.6744L8.00898 19.6844L8 19.5748L8.13473 19.5648L8.02695 19.4452L8.0988 19.3654L8.2515 19.5548L8.40419 19.5449L8.24251 19.3355L8.32335 19.2558L8.5479 19.5249L8.70958 19.515L8.44012 19.186L8.51198 19.1063L8.83533 19.505L8.94311 19.495V19.4452C8.9521 19.2957 9.02395 19.1561 9.12275 19.0565L9.18563 19.0066L9.13174 18.897L8.65569 18.8372L8.66467 18.7176L9.06886 18.7674L8.99701 18.6279L8.63772 18.588L8.64671 18.4784L8.93413 18.5083L8.83533 18.3189L8.62874 18.299L8.63772 18.1894L8.77246 18.1993L8.70958 18.0797L8.7994 18.0199L8.86228 18.1495L8.92515 18L9.02395 18.0399L8.93413 18.2691L9.01497 18.4286L9.10479 18.1694L9.20359 18.2093L9.07784 18.5482L9.15868 18.7076L9.31138 18.299L9.4012 18.3389L9.22156 18.8272L9.27545 18.9369L9.29341 18.9269C9.35629 18.907 9.41916 18.897 9.49102 18.897C9.56287 18.897 9.63473 18.9169 9.70659 18.9468L9.73353 18.9568L9.79641 18.8372L9.5988 18.3488L9.68862 18.299L9.8503 18.7076L9.92216 18.5681L9.77844 18.1993L9.87725 18.1495L9.99401 18.4385L10.0928 18.2591L10.003 18.0698L10.1018 18.0199L10.1557 18.1595L10.2186 18.0399L10.3084 18.0997L10.2365 18.2292L10.3802 18.1993L10.3892 18.309L10.1647 18.3389L10.0928 18.4983L10.3353 18.4684L10.3443 18.5781L10.021 18.6279L9.94012 18.7874L10.3353 18.7276L10.3443 18.8372L9.87725 18.897L9.81437 19.0066L9.87725 19.0664C9.9491 19.1462 10.003 19.2558 10.0299 19.3754V19.3854L10.1467 19.3754L10.3892 18.9169L10.479 18.9767L10.2725 19.3754L10.4162 19.3654L10.6048 19.0266L10.6946 19.0864L10.5509 19.3555L10.7395 19.3355L10.8473 19.1362L10.9371 19.196L10.8653 19.3256L10.991 19.3156L11 19.4252L10.8653 19.4352L10.9641 19.5548L10.8922 19.6346L10.7395 19.4551L10.5778 19.4651L10.7485 19.6744L10.6766 19.7542L10.4521 19.4751L10.2904 19.485L10.5599 19.814L10.479 19.8937L10.1557 19.495L10.0389 19.505L10.0299 19.6246C10.012 19.7442 9.95808 19.8538 9.87725 19.9336L9.80539 19.9934L9.85928 20.103L10.3353 20.1628L10.3263 20.2724L9.92216 20.2226L9.99401 20.3621L10.3533 20.402L10.3443 20.5116L10.0659 20.4917L10.1557 20.6711L10.3623 20.691L10.3533 20.8007L10.2186 20.7807L10.2814 20.9003L10.1916 20.9601L10.1287 20.8306L10.0749 21Z" fill="#4FA4C9"/>
<path fill-rule="evenodd" clip-rule="evenodd" d="M21.485 14.5316L21.488 14.505L21.4641 14.495L21.485 14.4817L21.482 14.4551L21.503 14.4718L21.521 14.4551L21.518 14.4817L21.5419 14.4917L21.521 14.505L21.524 14.5316L21.503 14.515L21.485 14.5316ZM21.497 14.6578C21.518 14.6578 21.5359 14.6545 21.5509 14.6445L21.5 14.5449L21.503 14.5415L21.5479 14.5748V14.5581L21.5838 14.6246L21.5988 14.6113C21.6168 14.5914 21.6317 14.5648 21.6377 14.5316L21.6407 14.505L21.5479 14.515L21.5958 14.4884L21.5659 14.4751L21.6407 14.4684L21.6317 14.4419C21.6257 14.4219 21.6138 14.4053 21.6018 14.392L21.5898 14.3787L21.5479 14.4585L21.5509 14.4053L21.521 14.4319L21.5599 14.3588H21.5569C21.5389 14.3522 21.521 14.3455 21.503 14.3455C21.494 14.3455 21.485 14.3455 21.476 14.3488L21.4521 14.3555L21.491 14.4286L21.4641 14.4086L21.4701 14.4684L21.4222 14.3754L21.4102 14.3854C21.3862 14.412 21.3683 14.4452 21.3653 14.485V14.4917L21.4431 14.485L21.4222 14.495L21.4731 14.5183V14.5216L21.3593 14.5316V14.5349C21.3653 14.5714 21.3832 14.6013 21.4072 14.6246L21.4102 14.6279L21.4641 14.5282L21.4611 14.5847L21.488 14.5615L21.4401 14.6478L21.4461 14.6512C21.4641 14.6545 21.479 14.6578 21.497 14.6578ZM21.6916 15L21.6587 14.9867L21.6886 14.9103L21.6617 14.8605L21.6287 14.9468L21.5958 14.9302L21.6377 14.8173L21.6108 14.7641L21.5599 14.9003L21.5269 14.8837L21.5898 14.7209L21.5719 14.6844L21.5659 14.6877C21.5449 14.6977 21.521 14.7043 21.494 14.7043C21.4731 14.7043 21.4521 14.701 21.4311 14.691L21.4192 14.6844L21.4012 14.7176L21.4641 14.8804L21.4341 14.897L21.3802 14.7608L21.3563 14.8073L21.4042 14.9302L21.3713 14.9468L21.3323 14.8505L21.2994 14.9103L21.3263 14.9801L21.2964 14.9967L21.2784 14.9502L21.2575 14.99L21.2275 14.9701L21.2515 14.9269L21.2036 14.9336L21.2006 14.897L21.2754 14.887L21.3024 14.8372L21.2186 14.8472L21.2156 14.8106L21.3234 14.794L21.3503 14.7409L21.2186 14.7608L21.2126 14.7243L21.3713 14.701L21.3892 14.6678L21.3802 14.6611C21.3473 14.6312 21.3263 14.5914 21.3174 14.5449V14.5382L21.2814 14.5415L21.2006 14.6944L21.1707 14.6744L21.2395 14.5449L21.1916 14.5482L21.1287 14.6578L21.0988 14.6379L21.1497 14.5482L21.0868 14.5548L21.0509 14.6213L21.021 14.6013L21.0449 14.5581L21.003 14.5615L21 14.5249L21.0449 14.5216L21.009 14.4817L21.0329 14.4551L21.0838 14.5183L21.1347 14.515L21.0808 14.4452L21.1078 14.4186L21.1826 14.5083L21.2365 14.505L21.1467 14.3953L21.1707 14.3688L21.2784 14.5017L21.3144 14.4983V14.4817C21.3174 14.4319 21.3413 14.3854 21.3743 14.3522L21.3952 14.3355L21.3772 14.299L21.2186 14.2791L21.2216 14.2392L21.3563 14.2558L21.3323 14.2093L21.2126 14.196L21.2156 14.1595L21.3114 14.1694L21.2784 14.1063L21.2096 14.0997L21.2126 14.0631L21.2575 14.0664L21.2365 14.0266L21.2665 14.0066L21.2874 14.0498L21.3084 14L21.3413 14.0133L21.3114 14.0897L21.3383 14.1429L21.3683 14.0565L21.4012 14.0698L21.3593 14.1827L21.3862 14.2359L21.4371 14.0997L21.4671 14.113L21.4072 14.2757L21.4251 14.3123L21.4311 14.309C21.4521 14.3023 21.4731 14.299 21.497 14.299C21.521 14.299 21.5449 14.3056 21.5689 14.3156L21.5778 14.3189L21.5988 14.2791L21.5329 14.1163L21.5629 14.0997L21.6168 14.2359L21.6407 14.1894L21.5928 14.0664L21.6257 14.0498L21.6647 14.1462L21.6976 14.0864L21.6677 14.0233L21.7006 14.0066L21.7186 14.0532L21.7395 14.0133L21.7695 14.0332L21.7455 14.0764L21.7934 14.0664L21.7964 14.103L21.7216 14.113L21.6976 14.1661L21.7784 14.1561L21.7814 14.1927L21.6737 14.2093L21.6467 14.2625L21.7784 14.2425L21.7814 14.2791L21.6257 14.299L21.6048 14.3355L21.6257 14.3555C21.6497 14.3821 21.6677 14.4186 21.6766 14.4585V14.4618L21.7156 14.4585L21.7964 14.3056L21.8263 14.3256L21.7575 14.4585L21.8054 14.4551L21.8683 14.3422L21.8982 14.3621L21.8503 14.4518L21.9132 14.4452L21.9491 14.3787L21.979 14.3987L21.9551 14.4419L21.997 14.4385L22 14.4751L21.9551 14.4784L21.988 14.5183L21.9641 14.5449L21.9132 14.485L21.8593 14.4884L21.9162 14.5581L21.8922 14.5847L21.8174 14.4917L21.7635 14.495L21.8533 14.6047L21.8263 14.6312L21.7186 14.4983L21.6796 14.5017L21.6766 14.5415C21.6707 14.5814 21.6527 14.6179 21.6257 14.6445L21.6018 14.6645L21.6198 14.701L21.7784 14.7209L21.7754 14.7575L21.6407 14.7409L21.6647 14.7874L21.7844 14.8007L21.7814 14.8372L21.6886 14.8306L21.7186 14.8904L21.7874 14.897L21.7844 14.9336L21.7395 14.9269L21.7605 14.9668L21.7305 14.9867L21.7096 14.9435L21.6916 15Z" fill="#4FA4C9"/>
<path fill-rule="evenodd" clip-rule="evenodd" d="M17.0671 17.0631L17.0737 17.01L17.021 16.99L17.0671 16.9635L17.0605 16.9103L17.1066 16.9435L17.1461 16.9103L17.1395 16.9635L17.1922 16.9834L17.1461 17.01L17.1527 17.0631L17.1066 17.0299L17.0671 17.0631ZM17.0934 17.3156C17.1395 17.3156 17.179 17.309 17.212 17.289L17.1 17.0897L17.1066 17.0831L17.2054 17.1495V17.1163L17.2844 17.2492L17.3174 17.2226C17.3569 17.1827 17.3898 17.1296 17.403 17.0631L17.4096 17.01L17.2054 17.0299L17.3108 16.9767L17.2449 16.9502L17.4096 16.9369L17.3898 16.8837C17.3766 16.8439 17.3503 16.8106 17.324 16.7841L17.2976 16.7575L17.2054 16.9169L17.212 16.8106L17.1461 16.8638L17.2317 16.7176H17.2251C17.1856 16.7043 17.1461 16.691 17.1066 16.691C17.0868 16.691 17.0671 16.691 17.0473 16.6977L16.9946 16.711L17.0802 16.8571L17.021 16.8173L17.0341 16.9369L16.9287 16.7508L16.9024 16.7708C16.8497 16.8239 16.8102 16.8904 16.8036 16.9701V16.9834L16.9749 16.9701L16.9287 16.99L17.0407 17.0365V17.0432L16.7904 17.0631V17.0698C16.8036 17.1429 16.8431 17.2027 16.8958 17.2492L16.9024 17.2558L17.021 17.0565L17.0144 17.1694L17.0737 17.1229L16.9683 17.2957L16.9814 17.3023C17.021 17.309 17.0539 17.3156 17.0934 17.3156ZM17.5216 18L17.4491 17.9734L17.515 17.8206L17.4557 17.7209L17.3832 17.8937L17.3108 17.8605L17.403 17.6346L17.3437 17.5282L17.2317 17.8007L17.1593 17.7674L17.2976 17.4419L17.2581 17.3688L17.2449 17.3754C17.1988 17.3953 17.1461 17.4086 17.0868 17.4086C17.0407 17.4086 16.9946 17.402 16.9485 17.3821L16.9222 17.3688L16.8826 17.4352L17.021 17.7608L16.9551 17.794L16.8365 17.5216L16.7838 17.6146L16.8892 17.8605L16.8168 17.8937L16.7311 17.701L16.6587 17.8206L16.718 17.9601L16.6521 17.9934L16.6126 17.9003L16.5665 17.9801L16.5006 17.9402L16.5533 17.8538L16.4479 17.8671L16.4413 17.794L16.606 17.7741L16.6653 17.6744L16.4808 17.6944L16.4743 17.6213L16.7114 17.588L16.7707 17.4817L16.4808 17.5216L16.4677 17.4485L16.8168 17.402L16.8563 17.3355L16.8365 17.3223C16.7641 17.2625 16.718 17.1827 16.6982 17.0897V17.0764L16.6192 17.0831L16.4413 17.3887L16.3754 17.3488L16.5269 17.0897L16.4216 17.0963L16.2832 17.3156L16.2174 17.2757L16.3293 17.0963L16.191 17.1096L16.112 17.2425L16.0461 17.2027L16.0988 17.1163L16.0066 17.1229L16 17.0498L16.0988 17.0432L16.0198 16.9635L16.0725 16.9103L16.1844 17.0365L16.2964 17.0299L16.1778 16.8904L16.2371 16.8372L16.4018 17.0166L16.5204 17.01L16.3228 16.7907L16.3754 16.7375L16.6126 17.0033L16.6916 16.9967V16.9635C16.6982 16.8638 16.7509 16.7708 16.8234 16.7043L16.8695 16.6711L16.8299 16.598L16.4808 16.5581L16.4874 16.4784L16.7838 16.5116L16.7311 16.4186L16.4677 16.392L16.4743 16.3189L16.685 16.3389L16.6126 16.2126L16.4611 16.1993L16.4677 16.1262L16.5665 16.1329L16.5204 16.0532L16.5862 16.0133L16.6323 16.0997L16.6784 16L16.7509 16.0266L16.685 16.1794L16.7443 16.2857L16.8102 16.113L16.8826 16.1395L16.7904 16.3654L16.8497 16.4718L16.9617 16.1993L17.0275 16.2259L16.8958 16.5515L16.9353 16.6246L16.9485 16.6179C16.9946 16.6047 17.0407 16.598 17.0934 16.598C17.1461 16.598 17.1988 16.6113 17.2515 16.6312L17.2713 16.6379L17.3174 16.5581L17.1725 16.2326L17.2383 16.1993L17.3569 16.4718L17.4096 16.3787L17.3042 16.1329L17.3766 16.0997L17.4623 16.2924L17.5347 16.1728L17.4689 16.0465L17.5413 16.0133L17.5808 16.1063L17.6269 16.0266L17.6928 16.0664L17.6401 16.1528L17.7455 16.1329L17.7521 16.206L17.5874 16.2259L17.5347 16.3322L17.7126 16.3123L17.7192 16.3854L17.482 16.4186L17.4228 16.5249L17.7126 16.485L17.7192 16.5581L17.3766 16.598L17.3305 16.6711L17.3766 16.711C17.4293 16.7641 17.4689 16.8372 17.4886 16.9169V16.9236L17.5743 16.9169L17.7521 16.6113L17.818 16.6512L17.6665 16.9169L17.7719 16.9103L17.9102 16.6844L17.976 16.7243L17.8707 16.9037L18.009 16.8904L18.088 16.7575L18.1539 16.7973L18.1012 16.8837L18.1934 16.8771L18.2 16.9502L18.1012 16.9568L18.1737 17.0365L18.121 17.0897L18.009 16.9701L17.8904 16.9767L18.0156 17.1163L17.9629 17.1694L17.7982 16.9834L17.6796 16.99L17.8772 17.2093L17.818 17.2625L17.5808 16.9967L17.4952 17.0033L17.4886 17.0831C17.4754 17.1628 17.4359 17.2359 17.3766 17.289L17.324 17.3289L17.3635 17.402L17.7126 17.4419L17.706 17.515L17.4096 17.4817L17.4623 17.5748L17.7257 17.6013L17.7192 17.6744L17.515 17.6611L17.5808 17.7807L17.7323 17.794L17.7257 17.8671L17.6269 17.8538L17.6731 17.9336L17.6072 17.9734L17.5611 17.887L17.5216 18Z" fill="#4FA4C9"/>
<path fill-rule="evenodd" clip-rule="evenodd" d="M15.485 19.5316L15.488 19.505L15.4641 19.495L15.485 19.4817L15.482 19.4551L15.503 19.4718L15.521 19.4551L15.518 19.4817L15.5419 19.4917L15.521 19.505L15.524 19.5316L15.503 19.515L15.485 19.5316ZM15.497 19.6578C15.518 19.6578 15.5359 19.6545 15.5509 19.6445L15.5 19.5449L15.503 19.5415L15.5479 19.5748V19.5581L15.5838 19.6246L15.5988 19.6113C15.6168 19.5914 15.6317 19.5648 15.6377 19.5316L15.6407 19.505L15.5479 19.515L15.5958 19.4884L15.5659 19.4751L15.6407 19.4684L15.6317 19.4419C15.6257 19.4219 15.6138 19.4053 15.6018 19.392L15.5898 19.3787L15.5479 19.4585L15.5509 19.4053L15.521 19.4319L15.5599 19.3588H15.5569C15.5389 19.3522 15.521 19.3455 15.503 19.3455C15.494 19.3455 15.485 19.3455 15.476 19.3488L15.4521 19.3555L15.491 19.4286L15.4641 19.4086L15.4701 19.4684L15.4222 19.3754L15.4102 19.3854C15.3862 19.412 15.3683 19.4452 15.3653 19.485V19.4917L15.4431 19.485L15.4222 19.495L15.4731 19.5183V19.5216L15.3593 19.5316V19.5349C15.3653 19.5714 15.3832 19.6013 15.4072 19.6246L15.4102 19.6279L15.4641 19.5282L15.4611 19.5847L15.488 19.5615L15.4401 19.6478L15.4461 19.6512C15.4641 19.6545 15.479 19.6578 15.497 19.6578ZM15.6916 20L15.6587 19.9867L15.6886 19.9103L15.6617 19.8605L15.6287 19.9468L15.5958 19.9302L15.6377 19.8173L15.6108 19.7641L15.5599 19.9003L15.5269 19.8837L15.5898 19.7209L15.5719 19.6844L15.5659 19.6877C15.5449 19.6977 15.521 19.7043 15.494 19.7043C15.4731 19.7043 15.4521 19.701 15.4311 19.691L15.4192 19.6844L15.4012 19.7176L15.4641 19.8804L15.4341 19.897L15.3802 19.7608L15.3563 19.8073L15.4042 19.9302L15.3713 19.9468L15.3323 19.8505L15.2994 19.9103L15.3263 19.9801L15.2964 19.9967L15.2784 19.9502L15.2575 19.99L15.2275 19.9701L15.2515 19.9269L15.2036 19.9336L15.2006 19.897L15.2754 19.887L15.3024 19.8372L15.2186 19.8472L15.2156 19.8106L15.3234 19.794L15.3503 19.7409L15.2186 19.7608L15.2126 19.7243L15.3713 19.701L15.3892 19.6678L15.3802 19.6611C15.3473 19.6312 15.3263 19.5914 15.3174 19.5449V19.5382L15.2814 19.5415L15.2006 19.6944L15.1707 19.6744L15.2395 19.5449L15.1916 19.5482L15.1287 19.6578L15.0988 19.6379L15.1497 19.5482L15.0868 19.5548L15.0509 19.6213L15.021 19.6013L15.0449 19.5581L15.003 19.5615L15 19.5249L15.0449 19.5216L15.009 19.4817L15.0329 19.4551L15.0838 19.5183L15.1347 19.515L15.0808 19.4452L15.1078 19.4186L15.1826 19.5083L15.2365 19.505L15.1467 19.3953L15.1707 19.3688L15.2784 19.5017L15.3144 19.4983V19.4817C15.3174 19.4319 15.3413 19.3854 15.3743 19.3522L15.3952 19.3355L15.3772 19.299L15.2186 19.2791L15.2216 19.2392L15.3563 19.2558L15.3323 19.2093L15.2126 19.196L15.2156 19.1595L15.3114 19.1694L15.2784 19.1063L15.2096 19.0997L15.2126 19.0631L15.2575 19.0664L15.2365 19.0266L15.2665 19.0066L15.2874 19.0498L15.3084 19L15.3413 19.0133L15.3114 19.0897L15.3383 19.1429L15.3683 19.0565L15.4012 19.0698L15.3593 19.1827L15.3862 19.2359L15.4371 19.0997L15.4671 19.113L15.4072 19.2757L15.4251 19.3123L15.4311 19.309C15.4521 19.3023 15.4731 19.299 15.497 19.299C15.521 19.299 15.5449 19.3056 15.5689 19.3156L15.5778 19.3189L15.5988 19.2791L15.5329 19.1163L15.5629 19.0997L15.6168 19.2359L15.6407 19.1894L15.5928 19.0664L15.6257 19.0498L15.6647 19.1462L15.6976 19.0864L15.6677 19.0233L15.7006 19.0066L15.7186 19.0532L15.7395 19.0133L15.7695 19.0332L15.7455 19.0764L15.7934 19.0664L15.7964 19.103L15.7216 19.113L15.6976 19.1661L15.7784 19.1561L15.7814 19.1927L15.6737 19.2093L15.6467 19.2625L15.7784 19.2425L15.7814 19.2791L15.6257 19.299L15.6048 19.3355L15.6257 19.3555C15.6497 19.3821 15.6677 19.4186 15.6766 19.4585V19.4618L15.7156 19.4585L15.7964 19.3056L15.8263 19.3256L15.7575 19.4585L15.8054 19.4551L15.8683 19.3422L15.8982 19.3621L15.8503 19.4518L15.9132 19.4452L15.9491 19.3787L15.979 19.3987L15.9551 19.4419L15.997 19.4385L16 19.4751L15.9551 19.4784L15.988 19.5183L15.9641 19.5449L15.9132 19.485L15.8593 19.4884L15.9162 19.5581L15.8922 19.5847L15.8174 19.4917L15.7635 19.495L15.8533 19.6047L15.8263 19.6312L15.7186 19.4983L15.6796 19.5017L15.6766 19.5415C15.6707 19.5814 15.6527 19.6179 15.6257 19.6445L15.6018 19.6645L15.6198 19.701L15.7784 19.7209L15.7754 19.7575L15.6407 19.7409L15.6647 19.7874L15.7844 19.8007L15.7814 19.8372L15.6886 19.8306L15.7186 19.8904L15.7874 19.897L15.7844 19.9336L15.7395 19.9269L15.7605 19.9668L15.7305 19.9867L15.7096 19.9435L15.6916 20Z" fill="#4FA4C9"/>
<defs>
<linearGradient id="paint0_linear_50:3852" x1="13.8191" y1="5.15203" x2="13.8191" y2="15.7929" gradientUnits="userSpaceOnUse">
<stop stop-color="white"/>
<stop offset="1" stop-color="#4FA4C9"/>
</linearGradient>
<linearGradient id="paint1_linear_50:3852" x1="9.81911" y1="8.15203" x2="9.81911" y2="18.7929" gradientUnits="userSpaceOnUse">
<stop stop-color="white"/>
<stop offset="1" stop-color="#4FA4C9"/>
</linearGradient>
</defs>
</svg>
