<svg width="24" height="24" viewBox="0 0 24 24" fill="none" xmlns="http://www.w3.org/2000/svg">
<path fill-rule="evenodd" clip-rule="evenodd" d="M18.5548 6C19.8829 6 21.0118 5.79747 21.5098 5.51055L21.8419 5.53587C21.9415 5.5443 22.0743 5.5443 22.1739 5.5443C23.1699 5.5443 24 5.34177 24 5.08861C24 4.83544 23.1699 4.63291 22.1739 4.63291C22.0411 4.63291 21.9083 4.63291 21.8086 4.64135H21.7754L21.7422 4.6076C21.5762 4.42194 20.9122 4.27848 20.1153 4.27848C19.8829 4.27848 19.6837 4.28692 19.4845 4.31224L19.3849 4.32068L19.3185 4.29536C18.8204 4.11814 18.0236 4 17.0939 4C16.0647 4 15.1682 4.14346 14.7366 4.35443L14.6702 4.39662L14.5706 4.38819C14.5041 4.38819 14.4377 4.38819 14.3713 4.38819C13.6741 4.38819 13.0432 4.48101 12.678 4.61603V4.62447L12.5784 4.61603C12.4124 4.6076 12.2464 4.59916 12.0804 4.59916C11.5159 4.59916 11.0179 4.67511 10.7191 4.77637L10.5863 4.84388L10.5199 4.83544C10.4535 4.83544 10.4203 4.83544 10.3539 4.83544C9.88903 4.83544 9.52381 4.92827 9.52381 5.03797C9.52381 5.14768 9.88903 5.24051 10.3539 5.24051C10.4535 5.24051 10.5863 5.23207 10.6859 5.22363L10.7191 5.21519L10.6527 5.23207C10.7855 5.27426 10.9183 5.31646 11.0843 5.34177L11.3499 5.37553L11.4163 5.40084C11.7152 5.51055 12.2132 5.57806 12.7776 5.57806C13.01 5.57806 13.2093 5.56962 13.4085 5.5443L13.4417 5.53587V5.5443C13.7737 5.7384 14.5374 5.87342 15.4338 5.87342C15.799 5.87342 16.1643 5.8481 16.4631 5.80591L16.4963 5.81435C17.0939 5.93249 17.7912 6 18.5548 6Z" fill="#7F999F" fill-opacity="0.3"/>
<path fill-rule="evenodd" clip-rule="evenodd" d="M17.031 7.5C18.3591 7.5 19.488 7.29747 19.986 7.01055L20.318 7.03587C20.4177 7.0443 20.5505 7.0443 20.6501 7.0443C21.6461 7.0443 22.4762 6.84177 22.4762 6.58861C22.4762 6.33544 21.6461 6.13291 20.6501 6.13291C20.5173 6.13291 20.3845 6.13291 20.2848 6.14135H20.2516L20.2184 6.1076C20.0524 5.92194 19.3884 5.77848 18.5915 5.77848C18.3591 5.77848 18.1599 5.78692 17.9607 5.81224L17.8611 5.82068L17.7947 5.79536C17.2966 5.61814 16.4998 5.5 15.5701 5.5C14.5409 5.5 13.6444 5.64346 13.2128 5.85443L13.1464 5.89662L13.0468 5.88819C12.9803 5.88819 12.9139 5.88819 12.8475 5.88819C12.1503 5.88819 11.5194 5.98101 11.1542 6.11603V6.12447L11.0546 6.11603C10.8886 6.1076 10.7226 6.09916 10.5566 6.09916C9.99214 6.09916 9.49411 6.17511 9.19529 6.27637L9.06248 6.34388L8.99607 6.33544C8.92967 6.33544 8.89647 6.33544 8.83006 6.33544C8.36523 6.33544 8 6.42827 8 6.53797C8 6.64768 8.36523 6.74051 8.83006 6.74051C8.92967 6.74051 9.06248 6.73207 9.16208 6.72363L9.19529 6.71519L9.12888 6.73207C9.26169 6.77426 9.3945 6.81646 9.56051 6.84177L9.82613 6.87553L9.89253 6.90084C10.1914 7.01055 10.6894 7.07806 11.2538 7.07806C11.4862 7.07806 11.6855 7.06962 11.8847 7.0443L11.9179 7.03587V7.0443C12.2499 7.2384 13.0135 7.37342 13.91 7.37342C14.2752 7.37342 14.6405 7.3481 14.9393 7.30591L14.9725 7.31435C15.5701 7.43249 16.2674 7.5 17.031 7.5Z" fill="url(#paint0_linear_50:4538)"/>
<path fill-rule="evenodd" clip-rule="evenodd" d="M10.5548 2C11.8829 2 13.0118 1.79747 13.5098 1.51055L13.8419 1.53587C13.9415 1.5443 14.0743 1.5443 14.1739 1.5443C15.1699 1.5443 16 1.34177 16 1.08861C16 0.835443 15.1699 0.632911 14.1739 0.632911C14.0411 0.632911 13.9083 0.632911 13.8086 0.64135H13.7754L13.7422 0.607595C13.5762 0.421941 12.9122 0.278481 12.1153 0.278481C11.8829 0.278481 11.6837 0.28692 11.4845 0.312236L11.3849 0.320675L11.3185 0.295359C10.8204 0.118143 10.0236 0 9.09393 0C8.06466 0 7.16819 0.14346 6.73657 0.35443L6.67016 0.396625L6.57055 0.388186C6.50415 0.388186 6.43774 0.388186 6.37134 0.388186C5.67409 0.388186 5.04325 0.481013 4.67802 0.616034V0.624473L4.57842 0.616034C4.41241 0.607595 4.24639 0.599156 4.08038 0.599156C3.51594 0.599156 3.01791 0.675106 2.71909 0.776371L2.58628 0.843882L2.51988 0.835443C2.45347 0.835443 2.42027 0.835443 2.35387 0.835443C1.88903 0.835443 1.52381 0.92827 1.52381 1.03797C1.52381 1.14768 1.88903 1.24051 2.35387 1.24051C2.45347 1.24051 2.58628 1.23207 2.68589 1.22363L2.71909 1.21519L2.65269 1.23207C2.7855 1.27426 2.9183 1.31646 3.08431 1.34177L3.34993 1.37553L3.41634 1.40084C3.71516 1.51055 4.21319 1.57806 4.77763 1.57806C5.01005 1.57806 5.20926 1.56962 5.40847 1.5443L5.44168 1.53587V1.5443C5.7737 1.7384 6.53735 1.87342 7.43381 1.87342C7.79904 1.87342 8.16426 1.8481 8.46308 1.80591L8.49629 1.81435C9.09393 1.93249 9.79117 2 10.5548 2Z" fill="#7F999F" fill-opacity="0.3"/>
<path fill-rule="evenodd" clip-rule="evenodd" d="M9.03102 3.5C10.3591 3.5 11.488 3.29747 11.986 3.01055L12.318 3.03587C12.4177 3.0443 12.5505 3.0443 12.6501 3.0443C13.6461 3.0443 14.4762 2.84177 14.4762 2.58861C14.4762 2.33544 13.6461 2.13291 12.6501 2.13291C12.5173 2.13291 12.3845 2.13291 12.2848 2.14135H12.2516L12.2184 2.1076C12.0524 1.92194 11.3884 1.77848 10.5915 1.77848C10.3591 1.77848 10.1599 1.78692 9.96069 1.81224L9.86108 1.82068L9.79468 1.79536C9.29664 1.61814 8.49979 1.5 7.57012 1.5C6.54085 1.5 5.64439 1.64346 5.21276 1.85443L5.14636 1.89662L5.04675 1.88819C4.98035 1.88819 4.91394 1.88819 4.84754 1.88819C4.15029 1.88819 3.51945 1.98101 3.15422 2.11603V2.12447L3.05461 2.11603C2.8886 2.1076 2.72259 2.09916 2.55658 2.09916C1.99214 2.09916 1.49411 2.17511 1.19529 2.27637L1.06248 2.34388L0.996073 2.33544C0.929668 2.33544 0.896466 2.33544 0.830062 2.33544C0.36523 2.33544 4.76837e-06 2.42827 4.76837e-06 2.53797C4.76837e-06 2.64768 0.36523 2.74051 0.830062 2.74051C0.929668 2.74051 1.06248 2.73207 1.16208 2.72363L1.19529 2.71519L1.12888 2.73207C1.26169 2.77426 1.3945 2.81646 1.56051 2.84177L1.82613 2.87553L1.89253 2.90084C2.19135 3.01055 2.68939 3.07806 3.25383 3.07806C3.48624 3.07806 3.68546 3.06962 3.88467 3.0443L3.91787 3.03587V3.0443C4.2499 3.2384 5.01355 3.37342 5.91001 3.37342C6.27523 3.37342 6.64046 3.3481 6.93928 3.30591L6.97248 3.31435C7.57012 3.43249 8.26737 3.5 9.03102 3.5Z" fill="url(#paint1_linear_50:4538)"/>
<path fill-rule="evenodd" clip-rule="evenodd" d="M18.5548 14C19.8829 14 21.0118 13.7975 21.5098 13.5105L21.8419 13.5359C21.9415 13.5443 22.0743 13.5443 22.1739 13.5443C23.1699 13.5443 24 13.3418 24 13.0886C24 12.8354 23.1699 12.6329 22.1739 12.6329C22.0411 12.6329 21.9083 12.6329 21.8086 12.6414H21.7754L21.7422 12.6076C21.5762 12.4219 20.9122 12.2785 20.1153 12.2785C19.8829 12.2785 19.6837 12.2869 19.4845 12.3122L19.3849 12.3207L19.3185 12.2954C18.8204 12.1181 18.0236 12 17.0939 12C16.0647 12 15.1682 12.1435 14.7366 12.3544L14.6702 12.3966L14.5706 12.3882C14.5041 12.3882 14.4377 12.3882 14.3713 12.3882C13.6741 12.3882 13.0432 12.481 12.678 12.616V12.6245L12.5784 12.616C12.4124 12.6076 12.2464 12.5992 12.0804 12.5992C11.5159 12.5992 11.0179 12.6751 10.7191 12.7764L10.5863 12.8439L10.5199 12.8354C10.4535 12.8354 10.4203 12.8354 10.3539 12.8354C9.88903 12.8354 9.52381 12.9283 9.52381 13.038C9.52381 13.1477 9.88903 13.2405 10.3539 13.2405C10.4535 13.2405 10.5863 13.2321 10.6859 13.2236L10.7191 13.2152L10.6527 13.2321C10.7855 13.2743 10.9183 13.3165 11.0843 13.3418L11.3499 13.3755L11.4163 13.4008C11.7152 13.5105 12.2132 13.5781 12.7776 13.5781C13.01 13.5781 13.2093 13.5696 13.4085 13.5443L13.4417 13.5359V13.5443C13.7737 13.7384 14.5374 13.8734 15.4338 13.8734C15.799 13.8734 16.1643 13.8481 16.4631 13.8059L16.4963 13.8143C17.0939 13.9325 17.7912 14 18.5548 14Z" fill="#7F999F" fill-opacity="0.3"/>
<path fill-rule="evenodd" clip-rule="evenodd" d="M17.031 15.5C18.3591 15.5 19.488 15.2975 19.986 15.0105L20.318 15.0359C20.4177 15.0443 20.5505 15.0443 20.6501 15.0443C21.6461 15.0443 22.4762 14.8418 22.4762 14.5886C22.4762 14.3354 21.6461 14.1329 20.6501 14.1329C20.5173 14.1329 20.3845 14.1329 20.2848 14.1414H20.2516L20.2184 14.1076C20.0524 13.9219 19.3884 13.7785 18.5915 13.7785C18.3591 13.7785 18.1599 13.7869 17.9607 13.8122L17.8611 13.8207L17.7947 13.7954C17.2966 13.6181 16.4998 13.5 15.5701 13.5C14.5409 13.5 13.6444 13.6435 13.2128 13.8544L13.1464 13.8966L13.0468 13.8882C12.9803 13.8882 12.9139 13.8882 12.8475 13.8882C12.1503 13.8882 11.5194 13.981 11.1542 14.116V14.1245L11.0546 14.116C10.8886 14.1076 10.7226 14.0992 10.5566 14.0992C9.99214 14.0992 9.49411 14.1751 9.19529 14.2764L9.06248 14.3439L8.99607 14.3354C8.92967 14.3354 8.89647 14.3354 8.83006 14.3354C8.36523 14.3354 8 14.4283 8 14.538C8 14.6477 8.36523 14.7405 8.83006 14.7405C8.92967 14.7405 9.06248 14.7321 9.16208 14.7236L9.19529 14.7152L9.12888 14.7321C9.26169 14.7743 9.3945 14.8165 9.56051 14.8418L9.82613 14.8755L9.89253 14.9008C10.1914 15.0105 10.6894 15.0781 11.2538 15.0781C11.4862 15.0781 11.6855 15.0696 11.8847 15.0443L11.9179 15.0359V15.0443C12.2499 15.2384 13.0135 15.3734 13.91 15.3734C14.2752 15.3734 14.6405 15.3481 14.9393 15.3059L14.9725 15.3143C15.5701 15.4325 16.2674 15.5 17.031 15.5Z" fill="url(#paint2_linear_50:4538)"/>
<path fill-rule="evenodd" clip-rule="evenodd" d="M10.5548 10C11.8829 10 13.0118 9.79747 13.5098 9.51055L13.8419 9.53587C13.9415 9.5443 14.0743 9.5443 14.1739 9.5443C15.1699 9.5443 16 9.34177 16 9.08861C16 8.83544 15.1699 8.63291 14.1739 8.63291C14.0411 8.63291 13.9083 8.63291 13.8086 8.64135H13.7754L13.7422 8.6076C13.5762 8.42194 12.9122 8.27848 12.1153 8.27848C11.8829 8.27848 11.6837 8.28692 11.4845 8.31224L11.3849 8.32068L11.3185 8.29536C10.8204 8.11814 10.0236 8 9.09393 8C8.06466 8 7.16819 8.14346 6.73657 8.35443L6.67016 8.39662L6.57055 8.38819C6.50415 8.38819 6.43774 8.38819 6.37134 8.38819C5.67409 8.38819 5.04325 8.48101 4.67802 8.61603V8.62447L4.57842 8.61603C4.41241 8.6076 4.24639 8.59916 4.08038 8.59916C3.51594 8.59916 3.01791 8.67511 2.71909 8.77637L2.58628 8.84388L2.51988 8.83544C2.45347 8.83544 2.42027 8.83544 2.35387 8.83544C1.88903 8.83544 1.52381 8.92827 1.52381 9.03797C1.52381 9.14768 1.88903 9.24051 2.35387 9.24051C2.45347 9.24051 2.58628 9.23207 2.68589 9.22363L2.71909 9.21519L2.65269 9.23207C2.7855 9.27426 2.9183 9.31646 3.08431 9.34177L3.34993 9.37553L3.41634 9.40084C3.71516 9.51055 4.21319 9.57806 4.77763 9.57806C5.01005 9.57806 5.20926 9.56962 5.40847 9.5443L5.44168 9.53587V9.5443C5.7737 9.7384 6.53735 9.87342 7.43381 9.87342C7.79904 9.87342 8.16426 9.8481 8.46308 9.80591L8.49629 9.81435C9.09393 9.93249 9.79117 10 10.5548 10Z" fill="#7F999F" fill-opacity="0.3"/>
<path fill-rule="evenodd" clip-rule="evenodd" d="M9.03102 11.5C10.3591 11.5 11.488 11.2975 11.986 11.0105L12.318 11.0359C12.4177 11.0443 12.5505 11.0443 12.6501 11.0443C13.6461 11.0443 14.4762 10.8418 14.4762 10.5886C14.4762 10.3354 13.6461 10.1329 12.6501 10.1329C12.5173 10.1329 12.3845 10.1329 12.2848 10.1414H12.2516L12.2184 10.1076C12.0524 9.92194 11.3884 9.77848 10.5915 9.77848C10.3591 9.77848 10.1599 9.78692 9.96069 9.81224L9.86108 9.82068L9.79468 9.79536C9.29664 9.61814 8.49979 9.5 7.57012 9.5C6.54085 9.5 5.64439 9.64346 5.21276 9.85443L5.14636 9.89662L5.04675 9.88819C4.98035 9.88819 4.91394 9.88819 4.84754 9.88819C4.15029 9.88819 3.51945 9.98101 3.15422 10.116V10.1245L3.05461 10.116C2.8886 10.1076 2.72259 10.0992 2.55658 10.0992C1.99214 10.0992 1.49411 10.1751 1.19529 10.2764L1.06248 10.3439L0.996073 10.3354C0.929668 10.3354 0.896466 10.3354 0.830062 10.3354C0.36523 10.3354 4.76837e-06 10.4283 4.76837e-06 10.538C4.76837e-06 10.6477 0.36523 10.7405 0.830062 10.7405C0.929668 10.7405 1.06248 10.7321 1.16208 10.7236L1.19529 10.7152L1.12888 10.7321C1.26169 10.7743 1.3945 10.8165 1.56051 10.8418L1.82613 10.8755L1.89253 10.9008C2.19135 11.0105 2.68939 11.0781 3.25383 11.0781C3.48624 11.0781 3.68546 11.0696 3.88467 11.0443L3.91787 11.0359V11.0443C4.2499 11.2384 5.01355 11.3734 5.91001 11.3734C6.27523 11.3734 6.64046 11.3481 6.93928 11.3059L6.97248 11.3143C7.57012 11.4325 8.26737 11.5 9.03102 11.5Z" fill="url(#paint3_linear_50:4538)"/>
<path fill-rule="evenodd" clip-rule="evenodd" d="M18.5548 22C19.8829 22 21.0118 21.7975 21.5098 21.5105L21.8419 21.5359C21.9415 21.5443 22.0743 21.5443 22.1739 21.5443C23.1699 21.5443 24 21.3418 24 21.0886C24 20.8354 23.1699 20.6329 22.1739 20.6329C22.0411 20.6329 21.9083 20.6329 21.8086 20.6414H21.7754L21.7422 20.6076C21.5762 20.4219 20.9122 20.2785 20.1153 20.2785C19.8829 20.2785 19.6837 20.2869 19.4845 20.3122L19.3849 20.3207L19.3185 20.2954C18.8204 20.1181 18.0236 20 17.0939 20C16.0647 20 15.1682 20.1435 14.7366 20.3544L14.6702 20.3966L14.5706 20.3882C14.5041 20.3882 14.4377 20.3882 14.3713 20.3882C13.6741 20.3882 13.0432 20.481 12.678 20.616V20.6245L12.5784 20.616C12.4124 20.6076 12.2464 20.5992 12.0804 20.5992C11.5159 20.5992 11.0179 20.6751 10.7191 20.7764L10.5863 20.8439L10.5199 20.8354C10.4535 20.8354 10.4203 20.8354 10.3539 20.8354C9.88903 20.8354 9.52381 20.9283 9.52381 21.038C9.52381 21.1477 9.88903 21.2405 10.3539 21.2405C10.4535 21.2405 10.5863 21.2321 10.6859 21.2236L10.7191 21.2152L10.6527 21.2321C10.7855 21.2743 10.9183 21.3165 11.0843 21.3418L11.3499 21.3755L11.4163 21.4008C11.7152 21.5105 12.2132 21.5781 12.7776 21.5781C13.01 21.5781 13.2093 21.5696 13.4085 21.5443L13.4417 21.5359V21.5443C13.7737 21.7384 14.5374 21.8734 15.4338 21.8734C15.799 21.8734 16.1643 21.8481 16.4631 21.8059L16.4963 21.8143C17.0939 21.9325 17.7912 22 18.5548 22Z" fill="#7F999F" fill-opacity="0.3"/>
<path fill-rule="evenodd" clip-rule="evenodd" d="M17.031 23.5C18.3591 23.5 19.488 23.2975 19.986 23.0105L20.318 23.0359C20.4177 23.0443 20.5505 23.0443 20.6501 23.0443C21.6461 23.0443 22.4762 22.8418 22.4762 22.5886C22.4762 22.3354 21.6461 22.1329 20.6501 22.1329C20.5173 22.1329 20.3845 22.1329 20.2848 22.1414H20.2516L20.2184 22.1076C20.0524 21.9219 19.3884 21.7785 18.5915 21.7785C18.3591 21.7785 18.1599 21.7869 17.9607 21.8122L17.8611 21.8207L17.7947 21.7954C17.2966 21.6181 16.4998 21.5 15.5701 21.5C14.5409 21.5 13.6444 21.6435 13.2128 21.8544L13.1464 21.8966L13.0468 21.8882C12.9803 21.8882 12.9139 21.8882 12.8475 21.8882C12.1503 21.8882 11.5194 21.981 11.1542 22.116V22.1245L11.0546 22.116C10.8886 22.1076 10.7226 22.0992 10.5566 22.0992C9.99214 22.0992 9.49411 22.1751 9.19529 22.2764L9.06248 22.3439L8.99607 22.3354C8.92967 22.3354 8.89647 22.3354 8.83006 22.3354C8.36523 22.3354 8 22.4283 8 22.538C8 22.6477 8.36523 22.7405 8.83006 22.7405C8.92967 22.7405 9.06248 22.7321 9.16208 22.7236L9.19529 22.7152L9.12888 22.7321C9.26169 22.7743 9.3945 22.8165 9.56051 22.8418L9.82613 22.8755L9.89253 22.9008C10.1914 23.0105 10.6894 23.0781 11.2538 23.0781C11.4862 23.0781 11.6855 23.0696 11.8847 23.0443L11.9179 23.0359V23.0443C12.2499 23.2384 13.0135 23.3734 13.91 23.3734C14.2752 23.3734 14.6405 23.3481 14.9393 23.3059L14.9725 23.3143C15.5701 23.4325 16.2674 23.5 17.031 23.5Z" fill="url(#paint4_linear_50:4538)"/>
<path fill-rule="evenodd" clip-rule="evenodd" d="M10.5548 18C11.8829 18 13.0118 17.7975 13.5098 17.5105L13.8419 17.5359C13.9415 17.5443 14.0743 17.5443 14.1739 17.5443C15.1699 17.5443 16 17.3418 16 17.0886C16 16.8354 15.1699 16.6329 14.1739 16.6329C14.0411 16.6329 13.9083 16.6329 13.8086 16.6414H13.7754L13.7422 16.6076C13.5762 16.4219 12.9122 16.2785 12.1153 16.2785C11.8829 16.2785 11.6837 16.2869 11.4845 16.3122L11.3849 16.3207L11.3185 16.2954C10.8204 16.1181 10.0236 16 9.09393 16C8.06466 16 7.16819 16.1435 6.73657 16.3544L6.67016 16.3966L6.57055 16.3882C6.50415 16.3882 6.43774 16.3882 6.37134 16.3882C5.67409 16.3882 5.04325 16.481 4.67802 16.616V16.6245L4.57842 16.616C4.41241 16.6076 4.24639 16.5992 4.08038 16.5992C3.51594 16.5992 3.01791 16.6751 2.71909 16.7764L2.58628 16.8439L2.51988 16.8354C2.45347 16.8354 2.42027 16.8354 2.35387 16.8354C1.88903 16.8354 1.52381 16.9283 1.52381 17.038C1.52381 17.1477 1.88903 17.2405 2.35387 17.2405C2.45347 17.2405 2.58628 17.2321 2.68589 17.2236L2.71909 17.2152L2.65269 17.2321C2.7855 17.2743 2.9183 17.3165 3.08431 17.3418L3.34993 17.3755L3.41634 17.4008C3.71516 17.5105 4.21319 17.5781 4.77763 17.5781C5.01005 17.5781 5.20926 17.5696 5.40847 17.5443L5.44168 17.5359V17.5443C5.7737 17.7384 6.53735 17.8734 7.43381 17.8734C7.79904 17.8734 8.16426 17.8481 8.46308 17.8059L8.49629 17.8143C9.09393 17.9325 9.79117 18 10.5548 18Z" fill="#7F999F" fill-opacity="0.3"/>
<path fill-rule="evenodd" clip-rule="evenodd" d="M9.03102 19.5C10.3591 19.5 11.488 19.2975 11.986 19.0105L12.318 19.0359C12.4177 19.0443 12.5505 19.0443 12.6501 19.0443C13.6461 19.0443 14.4762 18.8418 14.4762 18.5886C14.4762 18.3354 13.6461 18.1329 12.6501 18.1329C12.5173 18.1329 12.3845 18.1329 12.2848 18.1414H12.2516L12.2184 18.1076C12.0524 17.9219 11.3884 17.7785 10.5915 17.7785C10.3591 17.7785 10.1599 17.7869 9.96069 17.8122L9.86108 17.8207L9.79468 17.7954C9.29664 17.6181 8.49979 17.5 7.57012 17.5C6.54085 17.5 5.64439 17.6435 5.21276 17.8544L5.14636 17.8966L5.04675 17.8882C4.98035 17.8882 4.91394 17.8882 4.84754 17.8882C4.15029 17.8882 3.51945 17.981 3.15422 18.116V18.1245L3.05461 18.116C2.8886 18.1076 2.72259 18.0992 2.55658 18.0992C1.99214 18.0992 1.49411 18.1751 1.19529 18.2764L1.06248 18.3439L0.996073 18.3354C0.929668 18.3354 0.896466 18.3354 0.830062 18.3354C0.36523 18.3354 4.76837e-06 18.4283 4.76837e-06 18.538C4.76837e-06 18.6477 0.36523 18.7405 0.830062 18.7405C0.929668 18.7405 1.06248 18.7321 1.16208 18.7236L1.19529 18.7152L1.12888 18.7321C1.26169 18.7743 1.3945 18.8165 1.56051 18.8418L1.82613 18.8755L1.89253 18.9008C2.19135 19.0105 2.68939 19.0781 3.25383 19.0781C3.48624 19.0781 3.68546 19.0696 3.88467 19.0443L3.91787 19.0359V19.0443C4.2499 19.2384 5.01355 19.3734 5.91001 19.3734C6.27523 19.3734 6.64046 19.3481 6.93928 19.3059L6.97248 19.3143C7.57012 19.4325 8.26737 19.5 9.03102 19.5Z" fill="url(#paint5_linear_50:4538)"/>
<defs>
<linearGradient id="paint0_linear_50:4538" x1="15.2047" y1="5.73183" x2="15.2047" y2="8.34655" gradientUnits="userSpaceOnUse">
<stop stop-color="white"/>
<stop offset="1" stop-color="#86A4AA"/>
</linearGradient>
<linearGradient id="paint1_linear_50:4538" x1="7.20466" y1="1.73183" x2="7.20466" y2="4.34655" gradientUnits="userSpaceOnUse">
<stop stop-color="white"/>
<stop offset="1" stop-color="#86A4AA"/>
</linearGradient>
<linearGradient id="paint2_linear_50:4538" x1="15.2047" y1="13.7318" x2="15.2047" y2="16.3466" gradientUnits="userSpaceOnUse">
<stop stop-color="white"/>
<stop offset="1" stop-color="#86A4AA"/>
</linearGradient>
<linearGradient id="paint3_linear_50:4538" x1="7.20466" y1="9.73183" x2="7.20466" y2="12.3466" gradientUnits="userSpaceOnUse">
<stop stop-color="white"/>
<stop offset="1" stop-color="#86A4AA"/>
</linearGradient>
<linearGradient id="paint4_linear_50:4538" x1="15.2047" y1="21.7318" x2="15.2047" y2="24.3466" gradientUnits="userSpaceOnUse">
<stop stop-color="white"/>
<stop offset="1" stop-color="#86A4AA"/>
</linearGradient>
<linearGradient id="paint5_linear_50:4538" x1="7.20466" y1="17.7318" x2="7.20466" y2="20.3466" gradientUnits="userSpaceOnUse">
<stop stop-color="white"/>
<stop offset="1" stop-color="#86A4AA"/>
</linearGradient>
</defs>
</svg>
