<svg width="24" height="24" viewBox="0 0 24 24" fill="none" xmlns="http://www.w3.org/2000/svg">
<g opacity="1">
<path d="M12 4C8.691 4 6 6.691 6 10C6 14.159 11.416 19.623 11.646 19.854C11.744 19.951 11.872 20 12 20C12.128 20 12.256 19.951 12.354 19.854C12.584 19.623 18 14.159 18 10C18 6.691 15.309 4 12 4ZM12 18.777C10.806 17.499 7 13.177 7 10C7 7.243 9.243 5 12 5C14.757 5 17 7.243 17 10C17 13.174 13.194 17.499 12 18.777Z" fill="black" stroke="black" stroke-width="0.1"/>
<path d="M12 7C10.346 7 9 8.346 9 10C9 11.654 10.346 13 12 13C13.654 13 15 11.654 15 10C15 8.346 13.654 7 12 7ZM12 12C10.897 12 10 11.103 10 10C10 8.897 10.897 8 12 8C13.103 8 14 8.897 14 10C14 11.103 13.103 12 12 12Z" fill="black" stroke="black" stroke-width="0.2"/>
</g>
</svg>
