<svg width="32" height="32" viewBox="0 0 32 32" fill="none" xmlns="http://www.w3.org/2000/svg">
<path d="M14.3611 5.33333C19.2792 5.33333 23.3214 9.37559 23.3214 14.3611C23.3214 16.2474 22.7151 17.9991 21.7719 19.4139L26.151 23.8604C27.7005 25.4099 25.4099 27.7005 23.8604 26.151L19.4139 21.7719C17.9991 22.7151 16.2475 23.3214 14.3611 23.3214C9.37561 23.3214 5.33334 19.2791 5.33334 14.3611C5.33334 9.37559 9.37561 5.33333 14.3611 5.33333ZM14.3611 7.9608C10.7904 7.9608 7.96082 10.7904 7.96082 14.3611C7.96082 17.8644 10.7904 20.7613 14.3611 20.7613C17.8644 20.7613 20.7613 17.8644 20.7613 14.3611C20.7613 10.7904 17.8644 7.9608 14.3611 7.9608Z" fill="#010E82"/>
</svg>
